<?xml version="1.0" encoding="UTF-8" standalone="no"?>
<!-- Created with Inkscape (http://www.inkscape.org/) -->

<svg
   xmlns:dc="http://purl.org/dc/elements/1.1/"
   xmlns:cc="http://creativecommons.org/ns#"
   xmlns:rdf="http://www.w3.org/1999/02/22-rdf-syntax-ns#"
   xmlns:svg="http://www.w3.org/2000/svg"
   xmlns="http://www.w3.org/2000/svg"
   xmlns:sodipodi="http://sodipodi.sourceforge.net/DTD/sodipodi-0.dtd"
   xmlns:inkscape="http://www.inkscape.org/namespaces/inkscape"
   width="295"
   height="50"
   id="svg2"
   version="1.1"
   inkscape:version="0.48.2 r9819"
   sodipodi:docname="New document 1">
  <defs
     id="defs4" />
  <sodipodi:namedview
     id="base"
     pagecolor="#ffffff"
     bordercolor="#666666"
     borderopacity="1.0"
     inkscape:pageopacity="0.0"
     inkscape:pageshadow="2"
     inkscape:zoom="1.979899"
     inkscape:cx="216.3034"
     inkscape:cy="-89.897355"
     inkscape:document-units="px"
     inkscape:current-layer="layer1"
     showgrid="false"
     fit-margin-top="0"
     fit-margin-left="0"
     fit-margin-right="0"
     fit-margin-bottom="0"
     inkscape:window-width="1920"
     inkscape:window-height="1018"
     inkscape:window-x="-8"
     inkscape:window-y="-8"
     inkscape:window-maximized="1" />
  <metadata
     id="metadata7">
    <rdf:RDF>
      <cc:Work
         rdf:about="">
        <dc:format>image/svg+xml</dc:format>
        <dc:type
           rdf:resource="http://purl.org/dc/dcmitype/StillImage" />
        <dc:title></dc:title>
      </cc:Work>
    </rdf:RDF>
  </metadata>
  <g
     inkscape:label="Layer 1"
     inkscape:groupmode="layer"
     id="layer1"
     transform="translate(-2.784634,-2.856013)">
    <g
       id="g3016"
       transform="translate(-78.286823,-78.791898)">
      <path
         style="fill:#fefefe"
         d="m 81.071457,106.64791 0,-24.999999 147.500003,0 147.5,0 0,24.999999 0,25 -147.5,0 -147.500003,0 0,-25 z"
         id="path3032"
         inkscape:connector-curvature="0" />
      <path
         style="fill:#cacaca"
         d="m 137.41198,124.2873 c -0.14508,-4.64314 -0.0457,-4.89124 1.10114,-2.74839 l 1.26062,2.35548 0.60919,-2.32957 c 0.33506,-1.28126 0.88324,-2.05553 1.21817,-1.7206 0.87574,0.87574 -1.60445,8.61862 -2.92227,9.12306 -0.7089,0.27135 -1.16476,-1.41267 -1.26685,-4.67998 z m -6.34052,-2.18607 0,-4.54669 2.46857,1.79669 c 1.56882,1.14182 2.48003,2.79901 2.5,4.54668 0.026,2.27505 -0.40035,2.75 -2.46857,2.75 -2.3001,0 -2.5,-0.36355 -2.5,-4.54668 z m 2.66228,0.29668 c -0.27742,-0.6875 -0.50439,-0.125 -0.50439,1.25 0,1.375 0.22697,1.9375 0.50439,1.25 0.27741,-0.6875 0.27741,-1.8125 0,-2.5 z m 11.33772,3.14301 c 0,-0.61978 0.77021,-0.83876 1.75,-0.49754 1.66666,0.58042 1.66666,0.54455 0,-0.75326 -0.9625,-0.74948 -1.75,-1.82744 -1.75,-2.39546 0,-1.50367 2.4544,-2.20539 4.09068,-1.16954 1.10902,0.70206 0.98315,0.92015 -0.59068,1.02348 -1.68962,0.11093 -1.72842,0.20229 -0.25,0.58864 2.83358,0.74049 2.21242,4.31067 -0.75,4.31067 -1.375,0 -2.5,-0.49814 -2.5,-1.10699 z m 6.66666,0.44032 c -0.36666,-0.36666 -0.66666,-2.16666 -0.66666,-4 0,-3.2586 1.23726,-4.37647 2.52957,-2.28548 0.35618,0.57632 1.39524,0.9745 2.30902,0.88485 3.4936,-0.34277 4.16141,0.14946 4.16141,3.0673 0,2.81159 -0.24074,3 -3.83334,3 -2.10833,0 -4.13333,-0.3 -4.5,-0.66667 z m 3.33334,-0.75154 c 0,-0.23002 0.27314,-1.13002 0.60699,-2 0.39831,-1.03799 0.0545,-1.58179 -1,-1.58179 -0.94033,0 -1.60699,0.82971 -1.60699,2 0,1.1 0.45,2 1,2 0.55,0 1,-0.1882 1,-0.41821 z m 6.44483,-0.75559 c -0.71447,-2.2511 1.96099,-5.31146 3.70249,-4.23515 1.51866,0.93859 0.90188,2.36506 -0.74875,1.73166 -1.18716,-0.45556 -1.49515,-0.12409 -1.19061,1.28138 0.22595,1.04275 0.94659,1.78341 1.60143,1.64591 0.65483,-0.1375 1.19061,0.2 1.19061,0.75 0,1.97591 -3.87218,0.9781 -4.55517,-1.1738 z m 5.55517,-2.3262 c 0,-2.475 0.45,-4.5 1,-4.5 0.55,0 1,0.9551 1,2.12245 0,1.86446 0.20339,1.95562 1.67341,0.75 1.48302,-1.2163 1.61168,-1.13261 1.13076,0.73552 -0.29846,1.15938 -0.12913,2.84688 0.37628,3.75 1.06744,1.90741 -0.22631,2.19617 -1.98045,0.44203 -0.93334,-0.93333 -1.2,-0.93333 -1.2,0 0,0.66 -0.45,1.2 -1,1.2 -0.55,0 -1,-2.025 -1,-4.5 z m 6.33638,2.93421 c -0.86675,-2.25872 0.90776,-4.93421 3.2726,-4.93421 2.99669,0 2.65791,5.8911 -0.36345,6.32014 -1.41434,0.20083 -2.49844,-0.31564 -2.90915,-1.38593 z m 6.925,-1.93421 c -0.87472,-2.8501 -0.81304,-3.5 0.33222,-3.5 0.77352,0 1.44193,0.5625 1.48535,1.25 0.0632,1 0.17982,1 0.58333,0 0.27741,-0.6875 1.14189,-1.25 1.92105,-1.25 1.69985,0 1.69244,-0.0895 0.31884,3.85078 -1.4418,4.13596 -3.30704,3.99497 -4.64079,-0.35078 z m 6.40529,2.83333 c -1.13016,-1.13015 -0.73839,-4.02892 0.70658,-5.22814 2.1868,-1.81488 4.62675,-0.23186 4.62675,3.0018 0,2.36411 -0.42658,2.89301 -2.33333,2.89301 -1.28334,0 -2.63334,-0.3 -3,-0.66667 z m 6.33333,-2.83333 c 0,-3.0441 0.31795,-3.5 2.44098,-3.5 1.34254,0 2.7191,-0.45 3.05902,-1 0.33992,-0.55 1.94148,-1 3.55902,-1 2.70759,0 2.95179,0.29759 3.07716,3.75 0.0843,2.32138 0.30128,2.89283 0.56955,1.5 0.23836,-1.2375 0.73957,-2.29565 1.11382,-2.35145 5.11305,-0.76234 8.1827,-0.60944 8.19576,0.40823 0.009,0.72319 0.4032,0.60235 1,-0.30678 0.87528,-1.33333 1.0941,-1.33333 1.96938,0 0.65846,1.00305 0.98976,1.08588 1,0.25 0.008,-0.6875 0.69031,-1.25 1.51531,-1.25 1.78666,0 1.77595,-0.09 0.44395,3.73094 -0.89855,2.57758 -1.5324,3.00598 -4.25,2.8724 -2.56658,-0.12615 -3.27304,-0.64278 -3.59661,-2.63016 l -0.40266,-2.47318 -0.64334,2.5 c -0.56394,2.19143 -1.1876,2.5 -5.0529,2.5 -3.85159,0 -4.49747,-0.31634 -5.10432,-2.5 l -0.69476,-2.5 -0.0997,2.75 c -0.12868,3.55064 -3.09966,3.82034 -3.09966,0.28139 0,-1.78349 -0.41631,-2.30887 -1.5,-1.89302 -0.825,0.31659 -1.5,1.42746 -1.5,2.46862 0,1.04116 -0.45,1.89301 -1,1.89301 -0.55,0 -1,-1.575 -1,-3.5 z m -55.68709,-10.61284 c -5.60255,-1.60274 -7.31291,-4.98124 -7.31291,-14.445292 0,-7.434062 0.26391,-8.602054 2.56028,-11.331137 4.77959,-5.680229 13.69757,-5.014932 17.55425,1.309579 2.53451,4.156309 2.40749,4.579691 -1.37399,4.579691 -2.17644,0 -3.67446,-0.664533 -4.50847,-2 -1.60366,-2.567873 -5.83709,-2.606544 -7.19689,-0.06574 -1.66044,3.102558 -1.29495,13.663119 0.53625,15.494309 2.16209,2.16209 5.16335,1.96898 6.66064,-0.42857 0.83401,-1.33547 2.33203,-2 4.50847,-2 3.71504,0 3.76945,0.1131 1.84477,3.83502 -2.27544,4.40022 -7.97175,6.56852 -13.2724,5.05214 z m 153.31188,-0.33158 c -5.34056,-1.93765 -6.03039,-2.87854 -3.67394,-5.0111 1.71173,-1.5491 2.41813,-1.63428 4.92868,-0.59438 3.73739,1.54808 7.11178,1.04948 8.51834,-1.25867 0.88033,-1.44459 0.71148,-2.09865 -0.839,-3.25 -1.06762,-0.79279 -3.10499,-1.44143 -4.52749,-1.44143 -8.90971,0 -11.75438,-12.506281 -3.78237,-16.628765 3.70186,-1.914309 11.18151,-1.369289 13.53721,0.986418 1.44013,1.440123 1.41537,1.762109 -0.27943,3.634849 -1.26831,1.401458 -2.18499,1.729299 -2.88316,1.031128 -1.54184,-1.541835 -7.20846,-1.22881 -8.62363,0.476371 -1.85752,2.23818 0.2407,4.159049 5.38587,4.930615 5.91047,0.886329 8.61413,3.602438 8.61413,8.653794 0,4.38535 -3.39288,8.90406 -6.70455,8.92925 -0.9875,0.008 -2.69545,0.22386 -3.79545,0.48078 -1.1,0.25692 -3.74384,-0.16557 -5.87521,-0.93886 z m 70.70395,-0.0376 c -4.48643,-1.91726 -5.32874,-4.1804 -5.32874,-14.317389 0,-7.479816 0.332,-9.352946 2.04333,-11.528557 2.63773,-3.353323 7.73791,-4.353649 11.71401,-2.297529 3.92908,2.031807 4.24266,3.077764 4.24266,14.15151 0,8.314665 -0.25181,9.637375 -2.25,11.819025 -2.88092,3.14542 -6.41922,3.88319 -10.42126,2.17294 z m 6.17126,-14.017989 c 0,-8.933333 -0.0185,-9 -2.5,-9 -2.43115,0 -2.50812,0.217886 -2.79497,7.911609 -0.35133,9.42313 0.0601,10.83174 3.0405,10.40853 2.14858,-0.3051 2.25447,-0.74285 2.25447,-9.320139 z M 81.071457,110.14791 c 0,-2 0.5,-2.5 2.5,-2.5 2,0 2.5,0.5 2.5,2.5 0,2 -0.5,2.5 -2.5,2.5 -2,0 -2.5,-0.5 -2.5,-2.5 z m 7,-1 c 0,-3.06667 0.309524,-3.5 2.5,-3.5 2.190476,0 2.5,0.43333 2.5,3.5 0,3.06667 -0.309524,3.5 -2.5,3.5 -2.190476,0 -2.5,-0.43333 -2.5,-3.5 z m 7,-2 c 0,-5.2 0.136364,-5.5 2.5,-5.5 2.363636,0 2.500003,0.3 2.500003,5.5 0,5.2 -0.136367,5.5 -2.500003,5.5 -2.363636,0 -2.5,-0.3 -2.5,-5.5 z m 7.000003,-2.5 c 0,-7.866666 0.0417,-7.999999 2.5,-7.999999 2.45833,0 2.5,0.133333 2.5,7.999999 0,7.86667 -0.0417,8 -2.5,8 -2.45834,0 -2.5,-0.13333 -2.5,-8 z m 7,-3 0,-10.999999 2.5,0 2.5,0 0,10.999999 0,11 -2.5,0 -2.5,0 0,-11 z m 7,-3.999999 0,-15 2.5,0 2.5,0 0,15 0,14.999999 -2.5,0 -2.5,0 0,-14.999999 z m 41.12926,3.749999 c 2.23834,-6.187499 4.62983,-12.824999 5.31442,-14.749999 0.91336,-2.568306 1.91219,-3.580422 3.75221,-3.802112 2.37519,-0.286171 2.78014,0.452592 7.67398,14 2.84156,7.866161 5.15829,14.639611 5.1483,15.052111 -0.01,0.4125 -1.37931,0.75 -3.04292,0.75 -2.30627,0 -3.25053,-0.59384 -3.97525,-2.5 -0.83597,-2.19877 -1.54288,-2.5 -5.86684,-2.5 -4.41011,0 -4.98096,0.25742 -5.54381,2.5 -0.51766,2.06253 -1.23137,2.5 -4.07863,2.5 l -3.45118,0 4.06972,-11.25 z m 11.79466,0 c -0.0418,-0.6875 -0.64038,-2.812773 -1.33007,-4.72283 l -1.254,-3.472831 -1.60923,4.722831 -1.60923,4.72283 2.9393,0 c 1.72535,0 2.90789,-0.51626 2.86323,-1.25 z m 14.07608,-3.749999 0,-15 6.03212,0 c 6.87216,0 12.30784,1.898188 13.88739,4.8496 1.82492,3.409893 1.2771,8.044695 -1.24948,10.571281 l -2.32997,2.329968 2.78279,5.37458 c 1.53054,2.95601 2.80402,5.71207 2.82997,6.12457 0.0259,0.4125 -1.53349,0.75 -3.46543,0.75 -3.29621,0 -3.66246,-0.33883 -5.94497,-5.5 -1.81027,-4.09335 -2.95795,-5.5 -4.48739,-5.5 -1.82428,0 -2.05503,0.61757 -2.05503,5.5 0,5.44444 -0.0303,5.5 -3,5.5 l -3,0 0,-14.999999 z m 14.34073,-4.166177 c 1.54162,-2.462026 -0.89365,-4.833823 -4.96317,-4.833823 -3.20431,0 -3.37756,0.182628 -3.37756,3.560365 0,3.486672 0.0755,3.553942 3.64872,3.25 2.04665,-0.174091 4.10681,-1.041946 4.69201,-1.976542 z m 12.65927,4.166177 0,-15 10,0 10,0 0,3 0,3 -6.5,0 -6.5,0 0,3 c 0,2.969697 0.0556,3 5.5,3 5.44444,0 5.5,0.0303 5.5,3 0,2.969699 -0.0556,2.999999 -5.5,2.999999 l -5.5,0 0,3.5 0,3.5 6.5,0 c 6.26667,0 6.5,0.0897 6.5,2.5 0,2.5 0,2.5 -10,2.5 l -10,0 0,-14.999999 z m 25.22327,0.25 0.27673,-14.75 9.75,-0.286212 9.75,-0.286212 0,3.036212 0,3.036212 -6.5,0 -6.5,0 0,3 c 0,2.969697 0.0556,3 5.5,3 5.44444,0 5.5,0.0303 5.5,3 0,2.969699 -0.0556,2.999999 -5.5,2.999999 l -5.5,0 0,3.5 0,3.5 6.5,0 c 6.26667,0 6.5,0.0897 6.5,2.5 l 0,2.5 -10.02673,0 -10.02674,0 0.27674,-14.749999 z m 25.77673,-0.25 0,-15 6.03212,0 c 6.87216,0 12.30784,1.898188 13.88739,4.8496 1.8734,3.500482 1.27685,8.044952 -1.40858,10.730376 l -2.48906,2.489063 2.98906,5.29634 c 1.64399,2.91298 2.98907,5.59745 2.98907,5.96548 0,0.36803 -1.57989,0.66914 -3.51087,0.66914 -3.26196,0 -3.7021,-0.38992 -6.20831,-5.5 -1.77369,-3.61648 -3.31103,-5.5 -4.48914,-5.5 -1.50507,0 -1.79168,0.87983 -1.79168,5.5 0,5.44444 -0.0303,5.5 -3,5.5 l -3,0 0,-14.999999 z m 14.34073,-4.166177 c 1.54162,-2.462026 -0.89365,-4.833823 -4.96317,-4.833823 -3.20431,0 -3.37756,0.182628 -3.37756,3.560365 0,3.486672 0.0755,3.553942 3.64872,3.25 2.04665,-0.174091 4.10681,-1.041946 4.69201,-1.976542 z m 45.69253,16.916176 c 0.0192,-1.29782 2.77586,-5.42391 6.51405,-9.75 7.09061,-8.205725 7.92206,-11.273398 3.20269,-11.816421 -1.96427,-0.226015 -2.75,0.131133 -2.75,1.25 0,1.119028 -0.98479,1.566422 -3.44798,1.566422 -3.40451,0 -3.43466,-0.03821 -2.39158,-3.030385 2.19523,-6.297251 11.57673,-7.661797 15.79623,-2.297572 3.52983,4.48745 2.69065,7.376479 -4.67019,16.077956 l -4.44113,5.25 5.57733,0 c 5.28247,0 5.57732,0.13216 5.57732,2.5 0,2.49123 -0.0333,2.5 -9.5,2.5 -9.19504,0 -9.49893,-0.0722 -9.46674,-2.25 z m 22.96674,-0.75 c 0,-2.7619 0.27778,-3 3.5,-3 3.22222,0 3.5,0.2381 3.5,3 0,2.76191 -0.27778,3 -3.5,3 -3.22222,0 -3.5,-0.23809 -3.5,-3 z"
         id="path3030"
         inkscape:connector-curvature="0" />
      <path
         style="fill:#9e9e9e"
         d="m 137.69787,127.56053 c 0.67537,-0.84697 0.80362,-2.21347 0.32029,-3.41262 -1.17158,-2.90667 -1.06125,-4.30154 0.17244,-2.18023 1.02339,1.7597 1.10445,1.7597 2.45536,0 1.20329,-1.56741 1.21441,-1.27286 0.0801,2.12395 -0.7243,2.16904 -1.95539,4.15472 -2.73577,4.41262 -1.09967,0.36342 -1.16546,0.15113 -0.29244,-0.94372 z m -6.51041,-5.59307 c 0.0638,-2.65075 0.3129,-4.07823 0.55356,-3.17217 0.24066,0.90605 1.34905,1.88573 2.46311,2.17706 2.86512,0.74925 2.1725,5.06121 -0.88267,5.49511 -2.0792,0.2953 -2.2412,-0.0463 -2.134,-4.5 z m 3.19686,0.59332 c -1.32782,-1.32782 -2.7993,0.49104 -1.75901,2.17426 0.48382,0.78285 0.97617,0.78285 1.75901,0 0.78285,-0.78284 0.78285,-1.39142 0,-2.17426 z m 13.16483,3.17389 c 1.91619,-0.74864 1.90755,-0.81022 -0.27801,-1.97989 -2.65746,-1.42223 -2.01431,-3.15625 1.10933,-2.99087 1.79824,0.0952 1.8644,0.20046 0.36907,0.58718 -1.71476,0.44346 -1.72048,0.54534 -0.0972,1.73229 1.97648,1.44523 1.11997,3.59857 -1.38988,3.49425 -1.37368,-0.0571 -1.31987,-0.21528 0.28672,-0.84296 z m 4.31241,-2.0635 c -0.24029,-1.6372 -0.0733,-3.5497 0.37119,-4.25 0.85004,-1.33937 0.88987,-1.20347 1.16567,3.97681 0.21684,4.07276 -0.94879,4.27995 -1.53686,0.27319 z m 3.87656,2.31007 c -1.21905,-1.21904 -0.69102,-2.19081 1.58334,-2.91391 2.18486,-0.69464 2.19209,-0.73977 0.25,-1.5589 -2,-0.84354 -2,-0.84354 0,-0.59348 2.79971,0.35005 3.48803,5.73296 0.73309,5.73296 -1.04487,0 -2.19976,-0.3 -2.56643,-0.66667 z m 2.83334,-1.33333 c 0.33992,-0.55 0.16803,-1 -0.38197,-1 -0.55,0 -1.27811,0.45 -1.61803,1 -0.33992,0.55 -0.16804,1 0.38196,1 0.55,0 1.27812,-0.45 1.61804,-1 z m 3.67031,0.25 c -1.28411,-2.49671 -0.35684,-4.26891 2.16302,-4.134 1.69111,0.0905 1.78257,0.21638 0.41667,0.57333 -0.9625,0.25152 -1.75,1.29133 -1.75,2.31067 0,1.01934 0.7875,2.05915 1.75,2.31068 1.61422,0.42184 1.61695,0.46632 0.0352,0.57332 -0.94315,0.0638 -2.11984,-0.6715 -2.61487,-1.634 z m 4.82969,-2.25 c 0,-4.12781 1.93826,-5.75939 2.07894,-1.75 0.0434,1.2375 0.30592,1.6875 0.58334,1 0.27741,-0.6875 0.90276,-1.25 1.38967,-1.25 0.4869,0 0.62406,0.68073 0.30479,1.51274 -0.31927,0.832 -0.025,2.182 0.65383,3 1.46808,1.76893 -0.0828,2.015 -1.81057,0.28726 -0.93334,-0.93333 -1.2,-0.93333 -1.2,0 0,0.66 -0.45,1.2 -1,1.2 -0.55,0 -1,-1.8 -1,-4 z m 7.14078,2.66964 c -1.34479,-1.62037 -0.62727,-4.26898 1.36342,-5.03288 1.75652,-0.67404 3.75662,1.77037 3.31689,4.05372 -0.43645,2.2663 -3.14227,2.83238 -4.68031,0.97916 z m 2.46338,-3.39881 c -0.33229,-0.33229 -0.56864,0.25834 -0.52522,1.3125 0.048,1.16495 0.28494,1.4019 0.60417,0.60417 0.28887,-0.72187 0.25334,-1.58437 -0.0789,-1.91667 z m 4.37109,2.16407 c -1.37954,-3.62845 -1.15375,-5.25403 0.43829,-3.15551 1.24439,1.64028 1.4001,1.64863 1.99173,0.10687 1.03067,-2.68589 1.84783,-0.81509 1.11044,2.54223 -0.82215,3.7432 -2.23311,3.94501 -3.54046,0.50641 z m 5.66312,1.0651 c -1.29258,-3.36842 2.22328,-6.57655 4.37114,-3.98855 0.63565,0.76592 0.86322,2.31417 0.50572,3.44056 -0.75459,2.3775 -4.03343,2.74593 -4.87686,0.54799 z m 6.36163,-2.01956 c 0,-3.22793 0.21154,-3.48119 2.5531,-3.05659 1.58858,0.28807 2.75126,-0.0534 3.07764,-0.90394 0.30553,-0.79621 1.64028,-1.2489 3.19689,-1.08425 2.31127,0.24448 2.74901,0.84219 3.2396,4.42351 0.66628,4.86393 -1.29373,5.80234 -2.90495,1.39083 l -1.00439,-2.75 -0.0789,2.75 c -0.10274,3.57738 -3.07899,3.81904 -3.07899,0.25 0,-1.55556 -0.56667,-2.5 -1.5,-2.5 -0.93333,0 -1.5,0.94444 -1.5,2.5 0,1.375 -0.45,2.5 -1,2.5 -0.55,0 -1,-1.5838 -1,-3.51956 z m 13.46461,1.40805 c -0.42789,-1.34815 -0.0907,-2.69094 0.93261,-3.71428 1.47037,-1.47037 1.73519,-1.47037 3.20556,0 2.0272,2.0272 0.98214,5.82579 -1.60278,5.82579 -1.02587,0 -2.1668,-0.95018 -2.53539,-2.11151 z m 3.53539,-0.88849 c 0,-0.55 -0.45,-1 -1,-1 -0.55,0 -1,0.45 -1,1 0,0.55 0.45,1 1,1 0.55,0 1,-0.45 1,-1 z m 3.60699,1.41821 c -0.33385,-0.86998 -0.59268,-2.55748 -0.57519,-3.75 0.03,-2.04701 0.10823,-2.06743 1.399,-0.36521 1.03772,1.36851 1.51203,1.489 1.9682,0.5 0.49384,-1.07067 0.70816,-1.07067 1.202,0 0.45786,0.99267 0.95129,0.87359 2.07175,-0.5 1.34365,-1.64719 1.42044,-1.50684 0.88858,1.62408 -0.71593,4.21456 -1.36721,4.95103 -2.69183,3.04396 -0.77319,-1.11317 -1.14515,-1.16694 -1.52896,-0.22104 -0.69955,1.72404 -2.00548,1.56553 -2.73355,-0.33179 z M 81.071457,110.14791 c 0,-2 0.5,-2.5 2.5,-2.5 2,0 2.5,0.5 2.5,2.5 0,2 -0.5,2.5 -2.5,2.5 -2,0 -2.5,-0.5 -2.5,-2.5 z m 7,-1 c 0,-3.06667 0.309524,-3.5 2.5,-3.5 2.190476,0 2.5,0.43333 2.5,3.5 0,3.06667 -0.309524,3.5 -2.5,3.5 -2.190476,0 -2.5,-0.43333 -2.5,-3.5 z m 7,-2 c 0,-5.2 0.136364,-5.5 2.5,-5.5 2.363636,0 2.500003,0.3 2.500003,5.5 0,5.2 -0.136367,5.5 -2.500003,5.5 -2.363636,0 -2.5,-0.3 -2.5,-5.5 z m 7.000003,-2.5 c 0,-7.866666 0.0417,-7.999999 2.5,-7.999999 2.45833,0 2.5,0.133333 2.5,7.999999 0,7.86667 -0.0417,8 -2.5,8 -2.45834,0 -2.5,-0.13333 -2.5,-8 z m 7,-3 0,-10.999999 2.5,0 2.5,0 0,10.999999 0,11 -2.5,0 -2.5,0 0,-11 z m 7,-3.999999 0,-15 2.5,0 2.5,0 0,15 0,14.999999 -2.5,0 -2.5,0 0,-14.999999 z m 19.11007,13.604489 c -1.31446,-0.72855 -2.98602,-2.4001 -3.71457,-3.71456 -1.68363,-3.03763 -1.76526,-15.587055 -0.12287,-18.889929 1.71375,-3.446382 7.57912,-6.179648 11.55476,-5.384522 3.69254,0.738509 8.17261,4.861313 8.17261,7.520886 0,2.608163 -4.58697,2.503914 -6,-0.136364 -1.20692,-2.255136 -5.86692,-2.733085 -7.8,-0.8 -1.59271,1.592702 -1.59271,15.007299 0,16.599999 1.85256,1.85256 5.64495,1.42113 7.03207,-0.8 0.83726,-1.34066 2.33203,-2 4.53415,-2 l 3.28514,0 -1.51997,2.9393 c -0.83598,1.61661 -2.52267,3.64161 -3.74819,4.5 -2.70025,1.89133 -8.41295,1.97217 -11.67313,0.16519 z M 158.52,98.397911 c 4.7118,-12.885766 5.45416,-14.279122 7.75428,-14.55419 2.40325,-0.287401 2.7916,0.374913 7.03623,12 6.64355,18.195159 6.40785,16.804189 2.84739,16.804189 -2.41757,0 -3.17817,-0.5173 -3.6758,-2.5 -0.57189,-2.27859 -1.10328,-2.5 -6,-2.5 -4.89672,0 -5.42811,0.22141 -6,2.5 -0.50939,2.02957 -1.24327,2.5 -3.9001,2.5 l -3.27264,0 5.21064,-14.249999 z m 9.73004,-0.870724 -1.63754,-5.120724 -1.14689,2.870724 c -2.85814,7.154053 -2.83032,7.370723 0.94652,7.370723 l 3.47545,0 -1.63754,-5.120723 z m 14.82142,0.620724 0,-14.5 8.04545,0 c 7.20876,0 8.30072,0.255264 10.5,2.454545 3.41824,3.418233 3.35382,8.807534 -0.14401,12.049215 l -2.59856,2.408259 3.09856,5.41572 c 1.70421,2.97864 3.09856,5.69844 3.09856,6.04399 0,0.34555 -1.51355,0.62827 -3.36344,0.62827 -3.14501,0 -3.53829,-0.38963 -6.05607,-6 -1.95315,-4.3522 -3.22651,-6 -4.63657,-6 -1.70924,0 -1.94392,0.72436 -1.94392,6 0,6 0,6 -3,6 l -3,0 0,-14.499999 z m 14.83749,-5.38691 c 0.40638,-2.874084 -1.23421,-4.077266 -5.58749,-4.097777 -3.06049,-0.01442 -3.25,0.192123 -3.25,3.542185 l 0,3.557498 4.25,-0.307498 c 3.6118,-0.261323 4.30068,-0.665926 4.58749,-2.694408 z m 12.16251,5.38691 0,-14.5 10,0 c 10,0 10,0 10,2.5 0,2.430707 -0.19578,2.5 -7.06336,2.5 l -7.06336,0 0.31336,3.25 c 0.3098,3.213119 0.37861,3.253403 6.06336,3.549904 5.35383,0.279241 5.75,0.468712 5.75,2.75 0,2.327895 -0.29926,2.450095 -6,2.450095 l -6,0 0,3.5 0,3.5 7,0 c 6.8,0 7,0.0714 7,2.5 0,2.5 0,2.5 -10,2.5 l -10,0 0,-14.499999 z m 26,0 0,-14.5 9.5,0 c 9.46667,0 9.5,0.0088 9.5,2.5 0,2.410256 -0.23333,2.5 -6.5,2.5 l -6.5,0 0,3.5 0,3.5 5.5,0 c 5.2,0 5.5,0.136364 5.5,2.5 0,2.363639 -0.3,2.499999 -5.5,2.499999 l -5.5,0 0,3.5 0,3.5 6.5,0 c 6.26667,0 6.5,0.0897 6.5,2.5 0,2.49123 -0.0333,2.5 -9.5,2.5 l -9.5,0 0,-14.499999 z m 25,0 0,-14.5 7.91111,0 c 7.60633,0 8.01084,0.118532 10.5,3.076725 3.26495,3.880172 3.27819,6.950632 0.0466,10.791212 l -2.54233,3.021382 3.05673,6.05534 3.05672,6.05534 -3.54298,0 c -3.37452,0 -3.66671,-0.28529 -6.14511,-6 -1.84987,-4.26545 -3.14252,-6 -4.47141,-6 -1.61806,0 -1.86933,0.80652 -1.86933,6 0,6 0,6 -3,6 l -3,0 0,-14.499999 z m 14.51523,-4.547988 c 0.92248,-2.90647 -1.19976,-4.952012 -5.13767,-4.952012 -3.1934,0 -3.37756,0.190835 -3.37756,3.5 0,3.406671 0.10486,3.5 3.93261,3.5 3.08507,0 4.0727,-0.441375 4.58262,-2.047988 z m 12.34555,17.112497 c -2.18697,-1.79299 -2.24053,-2.05786 -0.72744,-3.59762 1.28836,-1.31108 2.06649,-1.43031 3.68425,-0.56451 2.26012,1.20958 6.14896,1.43142 8.60062,0.49063 2.49889,-0.95891 2.00323,-5.26943 -0.66821,-5.81121 -7.04481,-1.428708 -8.40897,-1.880886 -10,-3.314698 -1.13485,-1.02271 -1.75,-3.043139 -1.75,-5.747775 0,-6.948106 6.08253,-10.65128 13.99524,-8.520607 7.74636,2.085877 6.0087,5.501281 -2.79889,5.501281 -5.39509,0 -5.69635,0.130977 -5.69635,2.476611 0,2.187153 0.64263,2.619317 5.49837,3.697607 6.35259,1.41069 9.00163,4.014424 9.00163,8.847671 0,5.07727 -4.59936,8.47811 -11.46594,8.47811 -3.77364,0 -5.99633,-0.56064 -7.67328,-1.93549 z m 34.13922,-0.66747 c 0,-1.74207 1.98443,-4.90291 6,-9.55697 6.1175,-7.090181 7.11601,-9.668976 4.56392,-11.787018 -1.56043,-1.295045 -5.56392,0.131188 -5.56392,1.982133 0,0.530649 -1.125,0.964816 -2.5,0.964816 -5.07597,0 -1.42032,-6.891969 4.40757,-8.309551 3.48927,-0.848734 8.93055,1.753587 10.10043,4.83058 1.45213,3.819398 0.42947,6.485461 -5.019,13.08454 l -4.86669,5.89443 5.43885,0.2999 c 5.02362,0.27701 5.43884,0.48696 5.43884,2.75 0,2.41864 -0.11555,2.4501 -9,2.4501 l -9,0 0,-2.60296 z m 23,-0.39704 c 0,-2.66667 0.33333,-3 3,-3 2.66667,0 3,0.33333 3,3 0,2.66667 -0.33333,3 -3,3 -2.66667,0 -3,-0.33333 -3,-3 z m 15.22896,2.33071 c -2.76081,-1.11081 -4.22896,-6.22291 -4.22896,-14.725285 0,-7.438144 0.28783,-8.828516 2.31567,-11.186024 3.30968,-3.847737 10.05898,-3.847737 13.36866,0 2.06909,2.405458 2.31567,3.702631 2.31567,12.181818 0,8.742141 -0.19336,9.683051 -2.45455,11.944241 -2.37243,2.37243 -7.749,3.22062 -11.31649,1.78525 z m 7.57104,-5.53071 c 1.86197,-1.86197 1.57259,-15.284549 -0.37143,-17.22857 -1.79267,-1.79267 -1.72963,-1.776866 -3.84678,-0.96444 -1.27517,0.489327 -1.58179,2.298539 -1.58179,9.333333 0,4.799487 0.3,9.026347 0.66667,9.393007 1.06133,1.06133 3.8259,0.77411 5.13333,-0.53333 z"
         id="path3028"
         inkscape:connector-curvature="0" />
      <path
         style="fill:#ac8651"
         d="m 131.08677,122.39791 c 0.009,-2.54925 0.33869,-3.74047 0.82339,-2.97674 0.76053,1.19833 0.38331,7.22674 -0.4522,7.22674 -0.21258,0 -0.37961,-1.9125 -0.37119,-4.25 z m 7.54898,2.54313 c -0.54269,-1.4252 -0.42782,-1.54006 0.55979,-0.5598 0.68342,0.67834 0.99068,1.48524 0.68279,1.79313 -0.30789,0.30789 -0.86705,-0.24711 -1.24258,-1.23333 z m 9.64628,0.30773 c 0.70918,-0.76953 1.44699,-1.24947 1.63956,-1.06653 0.59315,0.56346 -0.91014,2.46567 -1.94858,2.46567 -0.53922,0 -0.40016,-0.62961 0.30902,-1.39914 z m 4.17896,-0.0281 c -0.30123,-0.785 -0.38005,-2.4725 -0.17514,-3.75 0.27407,-1.70876 0.50623,-1.33149 0.87828,1.42727 0.52359,3.88245 0.24655,4.79759 -0.70314,2.32273 z m 3.11755,0.43873 c -0.35034,-0.56686 0.0511,-0.73451 0.94098,-0.39301 1.73242,0.66478 2.04939,1.38155 0.61095,1.38155 -0.51754,0 -1.21591,-0.44485 -1.55193,-0.98855 z m 3.37408,-1.79287 c -0.32945,-1.98722 -0.18269,-2.92012 0.37208,-2.36534 0.50385,0.50385 0.74865,1.98048 0.544,3.28142 -0.31488,2.00168 -0.45572,1.86084 -0.91608,-0.91608 z m 11.74944,1.26116 c -0.33906,-0.88358 -1.06966,-1.32643 -1.62354,-0.98411 -0.55389,0.34231 -1.00706,0.25408 -1.00706,-0.19608 0,-0.45015 1.0125,-1.44901 2.25,-2.21967 1.97613,-1.23065 2.10074,-1.22051 1.02379,0.0832 -0.92995,1.1258 -0.94605,1.7646 -0.0667,2.64399 0.63775,0.63775 0.90763,1.41145 0.59975,1.71933 -0.30789,0.30789 -0.83721,-0.16313 -1.17628,-1.04671 z m 3.73102,0.0202 c -0.81976,-2.13626 0.30347,-4.5 2.13838,-4.5 2.12021,0 3.00637,2.68493 1.48943,4.51274 -1.5749,1.89763 -2.89651,1.89299 -3.62781,-0.0127 z m 2.22677,-3.24494 c -1.0924,-1.09239 -1.84147,0.64486 -1.05717,2.45181 0.74367,1.71337 0.79758,1.71181 1.21193,-0.0351 0.2385,-1.00555 0.16886,-2.09305 -0.15476,-2.41666 z m 4.58787,1.8207 c -0.64514,-1.85062 -0.69462,-3.07576 -0.12424,-3.07576 0.52139,0 0.94798,0.76101 0.94798,1.69113 0,1.48077 0.19303,1.44967 1.55178,-0.25 1.49132,-1.8655 1.5259,-1.84373 0.8876,0.55887 -1.06866,4.02252 -2.11557,4.36765 -3.26312,1.07576 z m 6.49041,2.25757 c -0.36667,-0.36666 -0.66667,-1.71666 -0.66667,-3 0,-1.64301 0.57424,-2.33333 1.94098,-2.33333 2.08168,0 3.6809,1.71145 2.60478,2.78757 -0.35998,0.35998 -1.05557,0.006 -1.54576,-0.78757 -0.49019,-0.79314 -1.19631,-1.13702 -1.56917,-0.76417 -1.01816,1.01817 0.40046,3.98648 1.56211,3.26854 0.55388,-0.34232 1.00706,-0.14585 1.00706,0.43661 0,1.17123 -2.28545,1.44024 -3.33333,0.39235 z m 5.33333,-2.33333 c 0,-2.46784 0.39912,-2.986 2.25,-2.92105 1.2375,0.0434 1.6875,0.30592 1,0.58333 -0.6875,0.27741 -1.25,1.59189 -1.25,2.92105 0,1.32917 -0.45,2.41667 -1,2.41667 -0.55,0 -1,-1.35 -1,-3 z m 5.81698,0.20634 c -0.47685,-3.24894 -0.0421,-5.20634 1.15644,-5.20634 0.69956,0 0.28915,6.99218 -0.45761,7.79636 -0.15136,0.163 -0.46584,-1.00251 -0.69883,-2.59002 z m 4.84969,2.12699 c -0.36667,-0.36666 -0.61492,-2.27916 -0.55167,-4.25 l 0.115,-3.58333 0.77956,4 c 0.81899,4.20228 0.75388,4.93011 -0.34289,3.83333 z m 4.02083,0.0208 c -0.37812,-0.37812 -0.6875,-1.73749 -0.6875,-3.02083 0,-1.69166 0.56827,-2.33333 2.06642,-2.33333 1.65208,0 2.00298,0.53594 1.75,2.67288 -0.31655,2.67397 -1.83501,3.9752 -3.12892,2.68129 z m 2.3125,-2.85416 c 0,-0.825 -0.45,-1.5 -1,-1.5 -0.55,0 -1,0.675 -1,1.5 0,0.825 0.45,1.5 1,1.5 0.55,0 1,-0.675 1,-1.5 z m 3.98635,2.75 c -0.008,-0.4125 -0.28875,-1.875 -0.62498,-3.25 -0.5963,-2.43859 -0.57218,-2.45087 0.98185,-0.5 1.81346,2.27654 2.13797,4.5 0.65678,4.5 -0.55,0 -1.00614,-0.3375 -1.01365,-0.75 z m 4.01365,-0.35887 c 0,-0.82988 0.6983,-2.38238 1.55178,-3.45 1.49132,-1.8655 1.5259,-1.84373 0.8876,0.55887 -0.81968,3.08534 -2.43938,5.00499 -2.43938,2.89113 z m -83.26879,-2.81097 c -0.43497,-1.66335 -0.30483,-2.05378 0.43724,-1.31171 0.5811,0.5811 0.85979,1.64682 0.61931,2.36826 -0.24965,0.74895 -0.70294,0.29565 -1.05655,-1.05655 z m 81.26879,-0.58016 c 0,-0.825 0.45,-1.5 1,-1.5 0.55,0 1,0.675 1,1.5 0,0.825 -0.45,1.5 -1,1.5 -0.55,0 -1,-0.675 -1,-1.5 z m -128.000003,-13 c 0,-3.06667 0.309524,-3.5 2.5,-3.5 2.190476,0 2.5,0.43333 2.5,3.5 0,3.06667 -0.309524,3.5 -2.5,3.5 -2.190476,0 -2.5,-0.43333 -2.5,-3.5 z m 7,-2 c 0,-5.2 0.136364,-5.5 2.5,-5.5 2.363636,0 2.500003,0.3 2.500003,5.5 0,5.2 -0.136367,5.5 -2.500003,5.5 -2.363636,0 -2.5,-0.3 -2.5,-5.5 z m 7.000003,-2.5 c 0,-7.866666 0.0417,-7.999999 2.5,-7.999999 2.45833,0 2.5,0.133333 2.5,7.999999 0,7.86667 -0.0417,8 -2.5,8 -2.45834,0 -2.5,-0.13333 -2.5,-8 z m 7,-3 0,-10.999999 2.5,0 2.5,0 0,10.999999 0,11 -2.5,0 -2.5,0 0,-11 z m 7,-3.999999 0,-15 2.5,0 2.5,0 0,15 0,14.999999 -2.5,0 -2.5,0 0,-14.999999 z m 20.5,14.054639 c -5.2976,-2.16826 -7.80409,-10.2897 -6.0543,-19.616919 1.56998,-8.368707 11.63046,-11.515398 17.63122,-5.514643 1.60769,1.607692 2.92308,3.555923 2.92308,4.329401 0,2.150771 -4.04873,1.538257 -6.62639,-1.002478 -1.25549,-1.2375 -2.94602,-2.25 -3.75673,-2.25 -1.94779,0 -4.59513,2.714495 -4.70214,4.821429 -0.27994,5.511818 0.40104,12.85414 1.29173,13.92735 1.66161,2.00213 6.57387,1.53017 7.79353,-0.74878 1.11808,-2.08916 6,-2.84932 6,-0.93426 0,5.35044 -8.49695,9.44591 -14.5,6.9889 z m 17.5,0.32155 c 0,-0.53462 7.50731,-21.526071 9.5225,-26.626189 0.38031,-0.9625 1.68244,-1.75 2.89361,-1.75 1.73863,0 2.5348,0.999796 3.78261,4.75 0.86926,2.6125 3.19707,9.1375 5.17292,14.499999 l 3.59244,9.75 -2.76281,0 c -2.15147,0 -3.01336,-0.66381 -3.89517,-3 -1.04976,-2.78114 -1.49634,-3 -6.12141,-3 -4.64431,0 -5.06131,0.20729 -6.03485,3 -0.79357,2.27644 -1.66131,3 -3.59782,3 -1.40361,0 -2.55202,-0.28071 -2.55202,-0.62381 z m 15.44376,-11.62619 c -0.38006,-1.237499 -1.25503,-3.599999 -1.94438,-5.249999 l -1.25337,-3 -1.11502,2.794103 c -0.61327,1.536757 -1.3924,3.899257 -1.73142,5.249996 -0.5708,2.27424 -0.3445,2.4559 3.05941,2.4559 3.35001,0 3.61455,-0.19941 2.98478,-2.25 z m 13.55624,-2.249999 0,-14.5 7.57692,0 c 7.10766,0 7.76521,0.188281 10.61699,3.040064 2.54066,2.540664 2.93618,3.559472 2.40769,6.201926 -0.3478,1.739023 -1.55708,4.146167 -2.68728,5.349207 l -2.0549,2.187342 3.08468,6.11073 3.08469,6.11073 -3,0 c -2.66347,0 -3.33976,-0.67306 -6.02879,-6 -2.1716,-4.30192 -3.59074,-6 -5.0144,-6 -1.76018,0 -1.9856,0.68117 -1.9856,6 0,6 0,6 -3,6 l -3,0 0,-14.499999 z m 13.06574,-2.535184 c 1.09756,-0.587396 1.93426,-2.086165 1.93426,-3.464816 0,-2.723617 -2.53994,-4.5 -6.43426,-4.5 -2.37421,0 -2.56574,0.335919 -2.56574,4.5 0,4.164081 0.19153,4.5 2.56574,4.5 1.41116,0 3.43616,-0.465833 4.5,-1.035184 z m 14.93426,2.535184 0,-14.5 9.5,0 c 8.7593,0 9.5,0.152374 9.5,1.95431 0,1.716858 -0.82014,1.990237 -6.75,2.25 l -6.75,0.29569 -0.31037,3.75 -0.31036,3.75 6.06036,0 c 5.34201,0 6.06037,0.231154 6.06037,1.950096 0,1.672592 -0.81824,1.992773 -5.75,2.25 l -5.75,0.299903 -0.31037,3.75 -0.31036,3.75 7.06036,0 c 6.86439,0 7.06037,0.0694 7.06037,2.5 0,2.49123 -0.0333,2.5 -9.5,2.5 l -9.5,0 0,-14.499999 z m 25,0 0,-14.5 9.5,0 c 8.7593,0 9.5,0.152374 9.5,1.95431 0,1.716858 -0.82014,1.990237 -6.75,2.25 l -6.75,0.29569 -0.31037,3.75 -0.31036,3.75 6.06036,0 c 5.34201,0 6.06037,0.231154 6.06037,1.950096 0,1.672592 -0.81824,1.992773 -5.75,2.25 l -5.75,0.299903 -0.31037,3.75 -0.31036,3.75 7.06036,0 c 6.86439,0 7.06037,0.0694 7.06037,2.5 0,2.49123 -0.0333,2.5 -9.5,2.5 l -9.5,0 0,-14.499999 z m 25,0 0,-14.5 7.44424,0 c 6.30544,0 7.84938,0.348496 10.09268,2.278102 3.78441,3.255208 3.88966,9.171665 0.21535,12.104994 l -2.65165,2.116903 3.34092,6.25 3.34092,6.25 -3.25466,0 c -3.01559,0 -3.45441,-0.44507 -5.97368,-6.05875 -2.22044,-4.9478 -3.1069,-6.00213 -4.83448,-5.75 -1.91051,0.27883 -2.08928,0.86589 -1.84506,6.05875 l 0.27042,5.75 -3.0725,0 -3.0725,0 0,-14.499999 z m 13.06574,-2.535184 c 1.09756,-0.587396 1.93426,-2.086165 1.93426,-3.464816 0,-2.70947 -2.53668,-4.5 -6.37524,-4.5 -3.13575,0 -3.45981,0.591557 -2.87595,5.25 0.39956,3.187996 0.83813,3.75 2.92634,3.75 1.35098,0 3.32675,-0.465833 4.39059,-1.035184 z m 15.13445,15.523373 c -2.93197,-1.27373 -3.17424,-1.66817 -2.17331,-3.53842 0.78668,-1.46992 1.63128,-1.87935 2.79981,-1.35723 0.92032,0.41121 3.54736,0.93836 5.83787,1.17146 3.48613,0.35476 4.3527,0.0723 5.3194,-1.73402 1.63447,-3.05404 -0.11457,-4.77706 -5.6993,-5.61454 -5.71665,-0.857267 -8.28466,-3.324918 -8.28466,-7.960894 0,-5.219163 3.60006,-8.454545 9.40749,-8.454545 2.47412,0 5.64768,0.523643 7.05234,1.163652 2.34488,1.068399 2.42593,1.305099 0.99012,2.891647 -1.28978,1.425198 -2.06717,1.537997 -4.43639,0.643717 -3.67007,-1.385297 -8.01356,0.373203 -8.01356,3.244361 0,2.369092 2.79205,4.056623 6.71175,4.056623 3.81996,0 6.99473,2.387114 7.75037,5.827519 1.86066,8.47155 -7.69239,13.81794 -17.26193,9.66067 z m 32.79981,-0.93123 c 0,-1.54967 2.21918,-5.01506 6.06868,-9.47663 4.79145,-5.553298 6.0016,-7.617285 5.75,-9.806964 -0.40746,-3.545985 -4.11644,-4.370694 -6.01124,-1.336628 -1.51858,2.431619 -5.80744,2.814028 -5.80744,0.517808 0,-0.85 1.10455,-2.65 2.45455,-4 3.16982,-3.169822 9.59729,-3.402702 12.54545,-0.454545 3.56175,3.561745 2.65084,8.05772 -3.0763,15.183769 l -5.0763,6.31623 5.0763,0.30226 c 4.63683,0.27609 5.0763,0.51417 5.0763,2.75 0,2.40501 -0.14839,2.44774 -8.5,2.44774 -8.34715,0 -8.5,-0.0439 -8.5,-2.44304 z m 23,-0.55696 c 0,-2.66667 0.33333,-3 3,-3 2.66667,0 3,0.33333 3,3 0,2.66667 -0.33333,3 -3,3 -2.66667,0 -3,-0.33333 -3,-3 z m 14.36174,0.63473 c -2.37073,-2.03922 -2.80785,-3.27702 -3.17094,-8.97929 -0.80951,-12.713059 1.62548,-17.655439 8.69842,-17.655439 6.60699,0 8.49257,2.428819 8.95223,11.531396 0.21521,4.261648 -0.10694,9.411363 -0.71588,11.443813 -1.82772,6.10041 -8.77784,7.9483 -13.76383,3.65952 z m 8.06683,-3.20616 c 1.95365,-1.95365 2.24705,-16.352945 0.37143,-18.228569 -1.80186,-1.801862 -4.59814,-1.445703 -5.76482,0.734258 -1.68808,3.154215 -1.30496,15.653111 0.53625,17.494311 1.97358,1.97358 2.88356,1.97358 4.85714,0 z"
         id="path3026"
         inkscape:connector-curvature="0" />
      <path
         style="fill:#f38100"
         d="m 131.08677,122.39791 c 0.009,-2.54925 0.33869,-3.74047 0.82339,-2.97674 0.76053,1.19833 0.38331,7.22674 -0.4522,7.22674 -0.21258,0 -0.37961,-1.9125 -0.37119,-4.25 z m 7.54898,2.54313 c -0.54269,-1.4252 -0.42782,-1.54006 0.55979,-0.5598 0.68342,0.67834 0.99068,1.48524 0.68279,1.79313 -0.30789,0.30789 -0.86705,-0.24711 -1.24258,-1.23333 z m 9.64628,0.30773 c 0.70918,-0.76953 1.44699,-1.24947 1.63956,-1.06653 0.59315,0.56346 -0.91014,2.46567 -1.94858,2.46567 -0.53922,0 -0.40016,-0.62961 0.30902,-1.39914 z m 4.17896,-0.0281 c -0.30123,-0.785 -0.38005,-2.4725 -0.17514,-3.75 0.27407,-1.70876 0.50623,-1.33149 0.87828,1.42727 0.52359,3.88245 0.24655,4.79759 -0.70314,2.32273 z m 3.11755,0.43873 c -0.35034,-0.56686 0.0511,-0.73451 0.94098,-0.39301 1.73242,0.66478 2.04939,1.38155 0.61095,1.38155 -0.51754,0 -1.21591,-0.44485 -1.55193,-0.98855 z m 3.37408,-1.79287 c -0.32945,-1.98722 -0.18269,-2.92012 0.37208,-2.36534 0.50385,0.50385 0.74865,1.98048 0.544,3.28142 -0.31488,2.00168 -0.45572,1.86084 -0.91608,-0.91608 z m 11.74944,1.26116 c -0.33906,-0.88358 -1.06966,-1.32643 -1.62354,-0.98411 -0.55389,0.34231 -1.00706,0.25408 -1.00706,-0.19608 0,-0.45015 1.0125,-1.44901 2.25,-2.21967 1.97613,-1.23065 2.10074,-1.22051 1.02379,0.0832 -0.92995,1.1258 -0.94605,1.7646 -0.0667,2.64399 0.63775,0.63775 0.90763,1.41145 0.59975,1.71933 -0.30789,0.30789 -0.83721,-0.16313 -1.17628,-1.04671 z m 3.73102,0.0202 c -0.81976,-2.13626 0.30347,-4.5 2.13838,-4.5 2.12021,0 3.00637,2.68493 1.48943,4.51274 -1.5749,1.89763 -2.89651,1.89299 -3.62781,-0.0127 z m 2.22677,-3.24494 c -1.0924,-1.09239 -1.84147,0.64486 -1.05717,2.45181 0.74367,1.71337 0.79758,1.71181 1.21193,-0.0351 0.2385,-1.00555 0.16886,-2.09305 -0.15476,-2.41666 z m 4.58787,1.8207 c -0.64514,-1.85062 -0.69462,-3.07576 -0.12424,-3.07576 0.52139,0 0.94798,0.76101 0.94798,1.69113 0,1.48077 0.19303,1.44967 1.55178,-0.25 1.49132,-1.8655 1.5259,-1.84373 0.8876,0.55887 -1.06866,4.02252 -2.11557,4.36765 -3.26312,1.07576 z m 6.49041,2.25757 c -0.36667,-0.36666 -0.66667,-1.71666 -0.66667,-3 0,-1.64301 0.57424,-2.33333 1.94098,-2.33333 2.08168,0 3.6809,1.71145 2.60478,2.78757 -0.35998,0.35998 -1.05557,0.006 -1.54576,-0.78757 -0.49019,-0.79314 -1.19631,-1.13702 -1.56917,-0.76417 -1.01816,1.01817 0.40046,3.98648 1.56211,3.26854 0.55388,-0.34232 1.00706,-0.14585 1.00706,0.43661 0,1.17123 -2.28545,1.44024 -3.33333,0.39235 z m 5.33333,-2.33333 c 0,-2.46784 0.39912,-2.986 2.25,-2.92105 1.2375,0.0434 1.6875,0.30592 1,0.58333 -0.6875,0.27741 -1.25,1.59189 -1.25,2.92105 0,1.32917 -0.45,2.41667 -1,2.41667 -0.55,0 -1,-1.35 -1,-3 z m 5.81698,0.20634 c -0.47685,-3.24894 -0.0421,-5.20634 1.15644,-5.20634 0.69956,0 0.28915,6.99218 -0.45761,7.79636 -0.15136,0.163 -0.46584,-1.00251 -0.69883,-2.59002 z m 4.84969,2.12699 c -0.36667,-0.36666 -0.61492,-2.27916 -0.55167,-4.25 l 0.115,-3.58333 0.77956,4 c 0.81899,4.20228 0.75388,4.93011 -0.34289,3.83333 z m 4.02083,0.0208 c -0.37812,-0.37812 -0.6875,-1.73749 -0.6875,-3.02083 0,-1.69166 0.56827,-2.33333 2.06642,-2.33333 1.65208,0 2.00298,0.53594 1.75,2.67288 -0.31655,2.67397 -1.83501,3.9752 -3.12892,2.68129 z m 2.3125,-2.85416 c 0,-0.825 -0.45,-1.5 -1,-1.5 -0.55,0 -1,0.675 -1,1.5 0,0.825 0.45,1.5 1,1.5 0.55,0 1,-0.675 1,-1.5 z m 3.98635,2.75 c -0.008,-0.4125 -0.28875,-1.875 -0.62498,-3.25 -0.5963,-2.43859 -0.57218,-2.45087 0.98185,-0.5 1.81346,2.27654 2.13797,4.5 0.65678,4.5 -0.55,0 -1.00614,-0.3375 -1.01365,-0.75 z m 4.01365,-0.35887 c 0,-0.82988 0.6983,-2.38238 1.55178,-3.45 1.49132,-1.8655 1.5259,-1.84373 0.8876,0.55887 -0.81968,3.08534 -2.43938,5.00499 -2.43938,2.89113 z m -83.26879,-2.81097 c -0.43497,-1.66335 -0.30483,-2.05378 0.43724,-1.31171 0.5811,0.5811 0.85979,1.64682 0.61931,2.36826 -0.24965,0.74895 -0.70294,0.29565 -1.05655,-1.05655 z m 81.26879,-0.58016 c 0,-0.825 0.45,-1.5 1,-1.5 0.55,0 1,0.675 1,1.5 0,0.825 -0.45,1.5 -1,1.5 -0.55,0 -1,-0.675 -1,-1.5 z m -114,-17.5 c 0,-7.866666 0.0417,-7.999999 2.5,-7.999999 2.45833,0 2.5,0.133333 2.5,7.999999 0,7.86667 -0.0417,8 -2.5,8 -2.45834,0 -2.5,-0.13333 -2.5,-8 z m 7,-3 0,-10.999999 2.5,0 2.5,0 0,10.999999 0,11 -2.5,0 -2.5,0 0,-11 z m 7,-3.999999 0,-15 2.5,0 2.5,0 0,15 0,14.999999 -2.5,0 -2.5,0 0,-14.999999 z m 20.5,14.054639 c -5.2976,-2.16826 -7.80409,-10.2897 -6.0543,-19.616919 1.56998,-8.368707 11.63046,-11.515398 17.63122,-5.514643 3.57598,3.575977 3.66548,4.701848 0.42308,5.321674 -1.375,0.262848 -2.5,0.100681 -2.5,-0.36037 0,-0.461051 -1.10297,-1.560967 -2.45104,-2.444256 -2.9929,-1.961023 -6.17891,-1.135738 -7.1845,1.861027 -1.02545,3.055977 -0.44114,13.901537 0.83158,15.435067 1.67029,2.01257 6.58077,1.54932 7.80396,-0.73622 1.11808,-2.08916 6,-2.84932 6,-0.93426 0,5.35044 -8.49695,9.44591 -14.5,6.9889 z m 17.5,0.32155 c 0,-0.53462 7.50731,-21.526071 9.5225,-26.626189 0.38031,-0.9625 1.68244,-1.75 2.89361,-1.75 1.73863,0 2.5348,0.999796 3.78261,4.75 0.86926,2.6125 3.19707,9.1375 5.17292,14.499999 l 3.59244,9.75 -2.76281,0 c -2.15147,0 -3.01336,-0.66381 -3.89517,-3 -1.04976,-2.78114 -1.49634,-3 -6.12141,-3 -4.64431,0 -5.06131,0.20729 -6.03485,3 -0.79357,2.27644 -1.66131,3 -3.59782,3 -1.40361,0 -2.55202,-0.28071 -2.55202,-0.62381 z m 15.44376,-11.62619 c -0.38006,-1.237499 -1.25503,-3.599999 -1.94438,-5.249999 l -1.25337,-3 -1.11502,2.794103 c -0.61327,1.536757 -1.3924,3.899257 -1.73142,5.249996 -0.5708,2.27424 -0.3445,2.4559 3.05941,2.4559 3.35001,0 3.61455,-0.19941 2.98478,-2.25 z m 13.55624,-2.249999 0,-14.5 7.57692,0 c 7.10766,0 7.76521,0.188281 10.61699,3.040064 2.54066,2.540664 2.93618,3.559472 2.40769,6.201926 -0.3478,1.739023 -1.55708,4.146167 -2.68728,5.349207 l -2.0549,2.187342 3.08468,6.11073 3.08469,6.11073 -3,0 c -2.66347,0 -3.33976,-0.67306 -6.02879,-6 -2.1716,-4.30192 -3.59074,-6 -5.0144,-6 -1.76018,0 -1.9856,0.68117 -1.9856,6 0,6 0,6 -3,6 l -3,0 0,-14.499999 z m 13.06574,-2.535184 c 1.09756,-0.587396 1.93426,-2.086165 1.93426,-3.464816 0,-2.723617 -2.53994,-4.5 -6.43426,-4.5 -2.37421,0 -2.56574,0.335919 -2.56574,4.5 0,4.164081 0.19153,4.5 2.56574,4.5 1.41116,0 3.43616,-0.465833 4.5,-1.035184 z m 14.93426,2.535184 0,-14.5 9.5,0 c 8.7593,0 9.5,0.152374 9.5,1.95431 0,1.716858 -0.82014,1.990237 -6.75,2.25 l -6.75,0.29569 -0.31037,3.75 -0.31036,3.75 6.06036,0 c 5.34201,0 6.06037,0.231154 6.06037,1.950096 0,1.672592 -0.81824,1.992773 -5.75,2.25 l -5.75,0.299903 -0.31037,3.75 -0.31036,3.75 7.06036,0 c 6.86439,0 7.06037,0.0694 7.06037,2.5 0,2.49123 -0.0333,2.5 -9.5,2.5 l -9.5,0 0,-14.499999 z m 25,0 0,-14.5 9.5,0 c 8.7593,0 9.5,0.152374 9.5,1.95431 0,1.716858 -0.82014,1.990237 -6.75,2.25 l -6.75,0.29569 -0.31037,3.75 -0.31036,3.75 6.06036,0 c 5.34201,0 6.06037,0.231154 6.06037,1.950096 0,1.672592 -0.81824,1.992773 -5.75,2.25 l -5.75,0.299903 -0.31037,3.75 -0.31036,3.75 7.06036,0 c 6.86439,0 7.06037,0.0694 7.06037,2.5 0,2.49123 -0.0333,2.5 -9.5,2.5 l -9.5,0 0,-14.499999 z m 25,0 0,-14.5 7.44424,0 c 6.30544,0 7.84938,0.348496 10.09268,2.278102 3.78441,3.255208 3.88966,9.171665 0.21535,12.104994 l -2.65165,2.116903 3.34092,6.25 3.34092,6.25 -3.25466,0 c -3.01559,0 -3.45441,-0.44507 -5.97368,-6.05875 -2.24541,-5.00344 -3.09654,-6.00497 -4.88656,-5.75 -1.98369,0.28256 -2.13851,0.79651 -1.82516,6.05875 l 0.34241,5.75 -3.09241,0 -3.0924,0 0,-14.499999 z m 13.06574,-2.535184 c 1.09756,-0.587396 1.93426,-2.086165 1.93426,-3.464816 0,-2.70947 -2.53668,-4.5 -6.37524,-4.5 -3.13575,0 -3.45981,0.591557 -2.87595,5.25 0.39956,3.187996 0.83813,3.75 2.92634,3.75 1.35098,0 3.32675,-0.465833 4.39059,-1.035184 z m 15.13445,15.523373 c -2.93197,-1.27373 -3.17424,-1.66817 -2.17331,-3.53842 0.78668,-1.46992 1.63128,-1.87935 2.79981,-1.35723 0.92032,0.41121 3.54736,0.93836 5.83787,1.17146 3.48613,0.35476 4.3527,0.0723 5.3194,-1.73402 1.63447,-3.05404 -0.11457,-4.77706 -5.6993,-5.61454 -5.71665,-0.857267 -8.28466,-3.324918 -8.28466,-7.960894 0,-5.219163 3.60006,-8.454545 9.40749,-8.454545 2.47412,0 5.64768,0.523643 7.05234,1.163652 2.34488,1.068399 2.42593,1.305099 0.99012,2.891647 -1.28978,1.425198 -2.06717,1.537997 -4.43639,0.643717 -3.67007,-1.385297 -8.01356,0.373203 -8.01356,3.244361 0,2.369092 2.79205,4.056623 6.71175,4.056623 3.81996,0 6.99473,2.387114 7.75037,5.827519 1.86066,8.47155 -7.69239,13.81794 -17.26193,9.66067 z m 32.79981,-0.93123 c 0,-1.54967 2.21918,-5.01506 6.06868,-9.47663 4.79145,-5.553298 6.0016,-7.617285 5.75,-9.806964 -0.40746,-3.545985 -4.11644,-4.370694 -6.01124,-1.336628 -1.51858,2.431619 -5.80744,2.814028 -5.80744,0.517808 0,-0.85 1.10455,-2.65 2.45455,-4 3.16982,-3.169822 9.59729,-3.402702 12.54545,-0.454545 3.56175,3.561745 2.65084,8.05772 -3.0763,15.183769 l -5.0763,6.31623 5.0763,0.30226 c 4.63683,0.27609 5.0763,0.51417 5.0763,2.75 0,2.40501 -0.14839,2.44774 -8.5,2.44774 -8.34715,0 -8.5,-0.0439 -8.5,-2.44304 z m 23,-0.55696 c 0,-2.66667 0.33333,-3 3,-3 2.66667,0 3,0.33333 3,3 0,2.66667 -0.33333,3 -3,3 -2.66667,0 -3,-0.33333 -3,-3 z m 14.36174,0.63473 c -2.37073,-2.03922 -2.80785,-3.27702 -3.17094,-8.97929 -0.80951,-12.713059 1.62548,-17.655439 8.69842,-17.655439 6.60699,0 8.49257,2.428819 8.95223,11.531396 0.21521,4.261648 -0.10694,9.411363 -0.71588,11.443813 -1.82772,6.10041 -8.77784,7.9483 -13.76383,3.65952 z m 8.06683,-3.20616 c 1.95365,-1.95365 2.24705,-16.352945 0.37143,-18.228569 -1.80186,-1.801862 -4.59814,-1.445703 -5.76482,0.734258 -1.68808,3.154215 -1.30496,15.653111 0.53625,17.494311 1.97358,1.97358 2.88356,1.97358 4.85714,0 z"
         id="path3024"
         inkscape:connector-curvature="0" />
      <path
         style="fill:#e6740e"
         d="m 131.08677,122.39791 c 0.009,-2.54925 0.33869,-3.74047 0.82339,-2.97674 0.76053,1.19833 0.38331,7.22674 -0.4522,7.22674 -0.21258,0 -0.37961,-1.9125 -0.37119,-4.25 z m 7.54898,2.54313 c -0.54269,-1.4252 -0.42782,-1.54006 0.55979,-0.5598 0.68342,0.67834 0.99068,1.48524 0.68279,1.79313 -0.30789,0.30789 -0.86705,-0.24711 -1.24258,-1.23333 z m 9.64628,0.30773 c 0.70918,-0.76953 1.44699,-1.24947 1.63956,-1.06653 0.59315,0.56346 -0.91014,2.46567 -1.94858,2.46567 -0.53922,0 -0.40016,-0.62961 0.30902,-1.39914 z m 4.17896,-0.0281 c -0.30123,-0.785 -0.38005,-2.4725 -0.17514,-3.75 0.27407,-1.70876 0.50623,-1.33149 0.87828,1.42727 0.52359,3.88245 0.24655,4.79759 -0.70314,2.32273 z m 3.11755,0.43873 c -0.35034,-0.56686 0.0511,-0.73451 0.94098,-0.39301 1.73242,0.66478 2.04939,1.38155 0.61095,1.38155 -0.51754,0 -1.21591,-0.44485 -1.55193,-0.98855 z m 3.37408,-1.79287 c -0.32945,-1.98722 -0.18269,-2.92012 0.37208,-2.36534 0.50385,0.50385 0.74865,1.98048 0.544,3.28142 -0.31488,2.00168 -0.45572,1.86084 -0.91608,-0.91608 z m 11.74944,1.26116 c -0.33906,-0.88358 -1.06966,-1.32643 -1.62354,-0.98411 -0.55389,0.34231 -1.00706,0.25408 -1.00706,-0.19608 0,-0.45015 1.0125,-1.44901 2.25,-2.21967 1.97613,-1.23065 2.10074,-1.22051 1.02379,0.0832 -0.92995,1.1258 -0.94605,1.7646 -0.0667,2.64399 0.63775,0.63775 0.90763,1.41145 0.59975,1.71933 -0.30789,0.30789 -0.83721,-0.16313 -1.17628,-1.04671 z m 3.73102,0.0202 c -0.81976,-2.13626 0.30347,-4.5 2.13838,-4.5 2.12021,0 3.00637,2.68493 1.48943,4.51274 -1.5749,1.89763 -2.89651,1.89299 -3.62781,-0.0127 z m 2.22677,-3.24494 c -1.0924,-1.09239 -1.84147,0.64486 -1.05717,2.45181 0.74367,1.71337 0.79758,1.71181 1.21193,-0.0351 0.2385,-1.00555 0.16886,-2.09305 -0.15476,-2.41666 z m 4.58787,1.8207 c -0.64514,-1.85062 -0.69462,-3.07576 -0.12424,-3.07576 0.52139,0 0.94798,0.76101 0.94798,1.69113 0,1.48077 0.19303,1.44967 1.55178,-0.25 1.49132,-1.8655 1.5259,-1.84373 0.8876,0.55887 -1.06866,4.02252 -2.11557,4.36765 -3.26312,1.07576 z m 6.49041,2.25757 c -0.36667,-0.36666 -0.66667,-1.71666 -0.66667,-3 0,-1.64301 0.57424,-2.33333 1.94098,-2.33333 2.08168,0 3.6809,1.71145 2.60478,2.78757 -0.35998,0.35998 -1.05557,0.006 -1.54576,-0.78757 -0.49019,-0.79314 -1.19631,-1.13702 -1.56917,-0.76417 -1.01816,1.01817 0.40046,3.98648 1.56211,3.26854 0.55388,-0.34232 1.00706,-0.14585 1.00706,0.43661 0,1.17123 -2.28545,1.44024 -3.33333,0.39235 z m 5.33333,-2.33333 c 0,-2.46784 0.39912,-2.986 2.25,-2.92105 1.2375,0.0434 1.6875,0.30592 1,0.58333 -0.6875,0.27741 -1.25,1.59189 -1.25,2.92105 0,1.32917 -0.45,2.41667 -1,2.41667 -0.55,0 -1,-1.35 -1,-3 z m 5.81698,0.20634 c -0.47685,-3.24894 -0.0421,-5.20634 1.15644,-5.20634 0.69956,0 0.28915,6.99218 -0.45761,7.79636 -0.15136,0.163 -0.46584,-1.00251 -0.69883,-2.59002 z m 4.84969,2.12699 c -0.36667,-0.36666 -0.61492,-2.27916 -0.55167,-4.25 l 0.115,-3.58333 0.77956,4 c 0.81899,4.20228 0.75388,4.93011 -0.34289,3.83333 z m 4.02083,0.0208 c -0.37812,-0.37812 -0.6875,-1.73749 -0.6875,-3.02083 0,-1.69166 0.56827,-2.33333 2.06642,-2.33333 1.65208,0 2.00298,0.53594 1.75,2.67288 -0.31655,2.67397 -1.83501,3.9752 -3.12892,2.68129 z m 2.3125,-2.85416 c 0,-0.825 -0.45,-1.5 -1,-1.5 -0.55,0 -1,0.675 -1,1.5 0,0.825 0.45,1.5 1,1.5 0.55,0 1,-0.675 1,-1.5 z m 3.98635,2.75 c -0.008,-0.4125 -0.28875,-1.875 -0.62498,-3.25 -0.5963,-2.43859 -0.57218,-2.45087 0.98185,-0.5 1.81346,2.27654 2.13797,4.5 0.65678,4.5 -0.55,0 -1.00614,-0.3375 -1.01365,-0.75 z m 4.01365,-0.35887 c 0,-0.82988 0.6983,-2.38238 1.55178,-3.45 1.49132,-1.8655 1.5259,-1.84373 0.8876,0.55887 -0.81968,3.08534 -2.43938,5.00499 -2.43938,2.89113 z m -83.26879,-2.81097 c -0.43497,-1.66335 -0.30483,-2.05378 0.43724,-1.31171 0.5811,0.5811 0.85979,1.64682 0.61931,2.36826 -0.24965,0.74895 -0.70294,0.29565 -1.05655,-1.05655 z m 81.26879,-0.58016 c 0,-0.825 0.45,-1.5 1,-1.5 0.55,0 1,0.675 1,1.5 0,0.825 -0.45,1.5 -1,1.5 -0.55,0 -1,-0.675 -1,-1.5 z m -114,-17.5 c 0,-7.866666 0.0417,-7.999999 2.5,-7.999999 2.45833,0 2.5,0.133333 2.5,7.999999 0,7.86667 -0.0417,8 -2.5,8 -2.45834,0 -2.5,-0.13333 -2.5,-8 z m 14,-6.999999 0,-15 2.5,0 2.5,0 0,15 0,14.999999 -2.5,0 -2.5,0 0,-14.999999 z m 20.5,14.054639 c -5.2976,-2.16826 -7.80409,-10.2897 -6.0543,-19.616919 1.56998,-8.368707 11.63046,-11.515398 17.63122,-5.514643 3.57598,3.575977 3.66548,4.701848 0.42308,5.321674 -1.375,0.262848 -2.5,0.100681 -2.5,-0.36037 0,-0.461051 -1.10297,-1.560967 -2.45104,-2.444256 -2.9929,-1.961023 -6.17891,-1.135738 -7.1845,1.861027 -1.02545,3.055977 -0.44114,13.901537 0.83158,15.435067 1.67029,2.01257 6.58077,1.54932 7.80396,-0.73622 1.11808,-2.08916 6,-2.84932 6,-0.93426 0,5.35044 -8.49695,9.44591 -14.5,6.9889 z m 17.5,0.32155 c 0,-0.53462 7.50731,-21.526071 9.5225,-26.626189 0.38031,-0.9625 1.68244,-1.75 2.89361,-1.75 1.73863,0 2.5348,0.999796 3.78261,4.75 0.86926,2.6125 3.19707,9.1375 5.17292,14.499999 l 3.59244,9.75 -2.76281,0 c -2.15147,0 -3.01336,-0.66381 -3.89517,-3 -1.04976,-2.78114 -1.49634,-3 -6.12141,-3 -4.64431,0 -5.06131,0.20729 -6.03485,3 -0.79357,2.27644 -1.66131,3 -3.59782,3 -1.40361,0 -2.55202,-0.28071 -2.55202,-0.62381 z m 15.44376,-11.62619 c -0.38006,-1.237499 -1.25503,-3.599999 -1.94438,-5.249999 l -1.25337,-3 -1.11502,2.794103 c -0.61327,1.536757 -1.3924,3.899257 -1.73142,5.249996 -0.5708,2.27424 -0.3445,2.4559 3.05941,2.4559 3.35001,0 3.61455,-0.19941 2.98478,-2.25 z m 13.55624,-2.249999 0,-14.5 7.57692,0 c 7.10766,0 7.76521,0.188281 10.61699,3.040064 2.54066,2.540664 2.93618,3.559472 2.40769,6.201926 -0.3478,1.739023 -1.55708,4.146167 -2.68728,5.349207 l -2.0549,2.187342 3.08468,6.11073 3.08469,6.11073 -3,0 c -2.66347,0 -3.33976,-0.67306 -6.02879,-6 -2.1716,-4.30192 -3.59074,-6 -5.0144,-6 -1.76018,0 -1.9856,0.68117 -1.9856,6 0,6 0,6 -3,6 l -3,0 0,-14.499999 z m 13.06574,-2.535184 c 1.09756,-0.587396 1.93426,-2.086165 1.93426,-3.464816 0,-2.723617 -2.53994,-4.5 -6.43426,-4.5 -2.37421,0 -2.56574,0.335919 -2.56574,4.5 0,4.164081 0.19153,4.5 2.56574,4.5 1.41116,0 3.43616,-0.465833 4.5,-1.035184 z m 14.93426,2.535184 0,-14.5 9.5,0 c 8.7593,0 9.5,0.152374 9.5,1.95431 0,1.716858 -0.82014,1.990237 -6.75,2.25 l -6.75,0.29569 -0.31037,3.75 -0.31036,3.75 6.06036,0 c 5.34201,0 6.06037,0.231154 6.06037,1.950096 0,1.672592 -0.81824,1.992773 -5.75,2.25 l -5.75,0.299903 -0.31037,3.75 -0.31036,3.75 7.06036,0 c 6.86439,0 7.06037,0.0694 7.06037,2.5 0,2.49123 -0.0333,2.5 -9.5,2.5 l -9.5,0 0,-14.499999 z m 25,0 0,-14.5 9.5,0 c 8.7593,0 9.5,0.152374 9.5,1.95431 0,1.716858 -0.82014,1.990237 -6.75,2.25 l -6.75,0.29569 -0.31037,3.75 -0.31036,3.75 6.06036,0 c 5.34201,0 6.06037,0.231154 6.06037,1.950096 0,1.672592 -0.81824,1.992773 -5.75,2.25 l -5.75,0.299903 -0.31037,3.75 -0.31036,3.75 7.06036,0 c 6.86439,0 7.06037,0.0694 7.06037,2.5 0,2.49123 -0.0333,2.5 -9.5,2.5 l -9.5,0 0,-14.499999 z m 25,0 0,-14.5 7.44424,0 c 6.30544,0 7.84938,0.348496 10.09268,2.278102 3.78441,3.255208 3.88966,9.171665 0.21535,12.104994 l -2.65165,2.116903 3.34092,6.25 3.34092,6.25 -3.25466,0 c -3.01559,0 -3.45441,-0.44507 -5.97368,-6.05875 -2.24541,-5.00344 -3.09654,-6.00497 -4.88656,-5.75 -1.98369,0.28256 -2.13851,0.79651 -1.82516,6.05875 l 0.34241,5.75 -3.09241,0 -3.0924,0 0,-14.499999 z m 13.06574,-2.535184 c 1.09756,-0.587396 1.93426,-2.086165 1.93426,-3.464816 0,-2.70947 -2.53668,-4.5 -6.37524,-4.5 -3.13575,0 -3.45981,0.591557 -2.87595,5.25 0.39956,3.187996 0.83813,3.75 2.92634,3.75 1.35098,0 3.32675,-0.465833 4.39059,-1.035184 z m 15.13445,15.523373 c -2.93197,-1.27373 -3.17424,-1.66817 -2.17331,-3.53842 0.78668,-1.46992 1.63128,-1.87935 2.79981,-1.35723 0.92032,0.41121 3.54736,0.93836 5.83787,1.17146 3.48613,0.35476 4.3527,0.0723 5.3194,-1.73402 1.63447,-3.05404 -0.11457,-4.77706 -5.6993,-5.61454 -5.71665,-0.857267 -8.28466,-3.324918 -8.28466,-7.960894 0,-5.219163 3.60006,-8.454545 9.40749,-8.454545 2.47412,0 5.64768,0.523643 7.05234,1.163652 2.34488,1.068399 2.42593,1.305099 0.99012,2.891647 -1.28978,1.425198 -2.06717,1.537997 -4.43639,0.643717 -3.67007,-1.385297 -8.01356,0.373203 -8.01356,3.244361 0,2.369092 2.79205,4.056623 6.71175,4.056623 3.81996,0 6.99473,2.387114 7.75037,5.827519 1.86066,8.47155 -7.69239,13.81794 -17.26193,9.66067 z m 32.79981,-0.93123 c 0,-1.54967 2.21918,-5.01506 6.06868,-9.47663 4.79145,-5.553298 6.0016,-7.617285 5.75,-9.806964 -0.40746,-3.545985 -4.11644,-4.370694 -6.01124,-1.336628 -1.51858,2.431619 -5.80744,2.814028 -5.80744,0.517808 0,-0.85 1.10455,-2.65 2.45455,-4 3.16982,-3.169822 9.59729,-3.402702 12.54545,-0.454545 3.56175,3.561745 2.65084,8.05772 -3.0763,15.183769 l -5.0763,6.31623 5.0763,0.30226 c 4.63683,0.27609 5.0763,0.51417 5.0763,2.75 0,2.40501 -0.14839,2.44774 -8.5,2.44774 -8.34715,0 -8.5,-0.0439 -8.5,-2.44304 z m 23,-0.55696 c 0,-2.66667 0.33333,-3 3,-3 2.66667,0 3,0.33333 3,3 0,2.66667 -0.33333,3 -3,3 -2.66667,0 -3,-0.33333 -3,-3 z m 14.36174,0.63473 c -2.37073,-2.03922 -2.80785,-3.27702 -3.17094,-8.97929 -0.80951,-12.713059 1.62548,-17.655439 8.69842,-17.655439 6.60699,0 8.49257,2.428819 8.95223,11.531396 0.21521,4.261648 -0.10694,9.411363 -0.71588,11.443813 -1.82772,6.10041 -8.77784,7.9483 -13.76383,3.65952 z m 8.06683,-3.20616 c 1.95365,-1.95365 2.24705,-16.352945 0.37143,-18.228569 -1.80186,-1.801862 -4.59814,-1.445703 -5.76482,0.734258 -1.68808,3.154215 -1.30496,15.653111 0.53625,17.494311 1.97358,1.97358 2.88356,1.97358 4.85714,0 z"
         id="path3022"
         inkscape:connector-curvature="0" />
      <path
         style="fill:#505050"
         d="m 131.08677,122.39791 c 0.009,-2.54925 0.33869,-3.74047 0.82339,-2.97674 0.76053,1.19833 0.38331,7.22674 -0.4522,7.22674 -0.21258,0 -0.37961,-1.9125 -0.37119,-4.25 z m 7.54898,2.54313 c -0.54269,-1.4252 -0.42782,-1.54006 0.55979,-0.5598 0.68342,0.67834 0.99068,1.48524 0.68279,1.79313 -0.30789,0.30789 -0.86705,-0.24711 -1.24258,-1.23333 z m 9.64628,0.30773 c 0.70918,-0.76953 1.44699,-1.24947 1.63956,-1.06653 0.59315,0.56346 -0.91014,2.46567 -1.94858,2.46567 -0.53922,0 -0.40016,-0.62961 0.30902,-1.39914 z m 4.17896,-0.0281 c -0.30123,-0.785 -0.38005,-2.4725 -0.17514,-3.75 0.27407,-1.70876 0.50623,-1.33149 0.87828,1.42727 0.52359,3.88245 0.24655,4.79759 -0.70314,2.32273 z m 3.11755,0.43873 c -0.35034,-0.56686 0.0511,-0.73451 0.94098,-0.39301 1.73242,0.66478 2.04939,1.38155 0.61095,1.38155 -0.51754,0 -1.21591,-0.44485 -1.55193,-0.98855 z m 3.37408,-1.79287 c -0.32945,-1.98722 -0.18269,-2.92012 0.37208,-2.36534 0.50385,0.50385 0.74865,1.98048 0.544,3.28142 -0.31488,2.00168 -0.45572,1.86084 -0.91608,-0.91608 z m 11.74944,1.26116 c -0.33906,-0.88358 -1.06966,-1.32643 -1.62354,-0.98411 -0.55389,0.34231 -1.00706,0.25408 -1.00706,-0.19608 0,-0.45015 1.0125,-1.44901 2.25,-2.21967 1.97613,-1.23065 2.10074,-1.22051 1.02379,0.0832 -0.92995,1.1258 -0.94605,1.7646 -0.0667,2.64399 0.63775,0.63775 0.90763,1.41145 0.59975,1.71933 -0.30789,0.30789 -0.83721,-0.16313 -1.17628,-1.04671 z m 3.73102,0.0202 c -0.81976,-2.13626 0.30347,-4.5 2.13838,-4.5 2.12021,0 3.00637,2.68493 1.48943,4.51274 -1.5749,1.89763 -2.89651,1.89299 -3.62781,-0.0127 z m 2.22677,-3.24494 c -1.0924,-1.09239 -1.84147,0.64486 -1.05717,2.45181 0.74367,1.71337 0.79758,1.71181 1.21193,-0.0351 0.2385,-1.00555 0.16886,-2.09305 -0.15476,-2.41666 z m 4.58787,1.8207 c -0.64514,-1.85062 -0.69462,-3.07576 -0.12424,-3.07576 0.52139,0 0.94798,0.76101 0.94798,1.69113 0,1.48077 0.19303,1.44967 1.55178,-0.25 1.49132,-1.8655 1.5259,-1.84373 0.8876,0.55887 -1.06866,4.02252 -2.11557,4.36765 -3.26312,1.07576 z m 6.49041,2.25757 c -0.36667,-0.36666 -0.66667,-1.71666 -0.66667,-3 0,-1.64301 0.57424,-2.33333 1.94098,-2.33333 2.08168,0 3.6809,1.71145 2.60478,2.78757 -0.35998,0.35998 -1.05557,0.006 -1.54576,-0.78757 -0.49019,-0.79314 -1.19631,-1.13702 -1.56917,-0.76417 -1.01816,1.01817 0.40046,3.98648 1.56211,3.26854 0.55388,-0.34232 1.00706,-0.14585 1.00706,0.43661 0,1.17123 -2.28545,1.44024 -3.33333,0.39235 z m 5.33333,-2.33333 c 0,-2.46784 0.39912,-2.986 2.25,-2.92105 1.2375,0.0434 1.6875,0.30592 1,0.58333 -0.6875,0.27741 -1.25,1.59189 -1.25,2.92105 0,1.32917 -0.45,2.41667 -1,2.41667 -0.55,0 -1,-1.35 -1,-3 z m 5.81698,0.20634 c -0.47685,-3.24894 -0.0421,-5.20634 1.15644,-5.20634 0.69956,0 0.28915,6.99218 -0.45761,7.79636 -0.15136,0.163 -0.46584,-1.00251 -0.69883,-2.59002 z m 4.84969,2.12699 c -0.36667,-0.36666 -0.61492,-2.27916 -0.55167,-4.25 l 0.115,-3.58333 0.77956,4 c 0.81899,4.20228 0.75388,4.93011 -0.34289,3.83333 z m 4.02083,0.0208 c -0.37812,-0.37812 -0.6875,-1.73749 -0.6875,-3.02083 0,-1.69166 0.56827,-2.33333 2.06642,-2.33333 1.65208,0 2.00298,0.53594 1.75,2.67288 -0.31655,2.67397 -1.83501,3.9752 -3.12892,2.68129 z m 2.3125,-2.85416 c 0,-0.825 -0.45,-1.5 -1,-1.5 -0.55,0 -1,0.675 -1,1.5 0,0.825 0.45,1.5 1,1.5 0.55,0 1,-0.675 1,-1.5 z m 3.98635,2.75 c -0.008,-0.4125 -0.28875,-1.875 -0.62498,-3.25 -0.5963,-2.43859 -0.57218,-2.45087 0.98185,-0.5 1.81346,2.27654 2.13797,4.5 0.65678,4.5 -0.55,0 -1.00614,-0.3375 -1.01365,-0.75 z m 4.01365,-0.35887 c 0,-0.82988 0.6983,-2.38238 1.55178,-3.45 1.49132,-1.8655 1.5259,-1.84373 0.8876,0.55887 -0.81968,3.08534 -2.43938,5.00499 -2.43938,2.89113 z m -83.26879,-2.81097 c -0.43497,-1.66335 -0.30483,-2.05378 0.43724,-1.31171 0.5811,0.5811 0.85979,1.64682 0.61931,2.36826 -0.24965,0.74895 -0.70294,0.29565 -1.05655,-1.05655 z m 81.26879,-0.58016 c 0,-0.825 0.45,-1.5 1,-1.5 0.55,0 1,0.675 1,1.5 0,0.825 -0.45,1.5 -1,1.5 -0.55,0 -1,-0.675 -1,-1.5 z m -79.5,-10.44536 c -5.2976,-2.16826 -7.80409,-10.2897 -6.0543,-19.616919 1.56998,-8.368707 11.63046,-11.515398 17.63122,-5.514643 3.57598,3.575977 3.66548,4.701848 0.42308,5.321674 -1.375,0.262848 -2.5,0.100681 -2.5,-0.36037 0,-0.461051 -1.10297,-1.560967 -2.45104,-2.444256 -2.9929,-1.961023 -6.17891,-1.135738 -7.1845,1.861027 -1.02545,3.055977 -0.44114,13.901537 0.83158,15.435067 1.67029,2.01257 6.58077,1.54932 7.80396,-0.73622 1.11808,-2.08916 6,-2.84932 6,-0.93426 0,5.35044 -8.49695,9.44591 -14.5,6.9889 z m 17.5,0.32155 c 0,-0.53462 7.50731,-21.526071 9.5225,-26.626189 0.38031,-0.9625 1.68244,-1.75 2.89361,-1.75 1.73863,0 2.5348,0.999796 3.78261,4.75 0.86926,2.6125 3.19707,9.1375 5.17292,14.499999 l 3.59244,9.75 -2.76281,0 c -2.15147,0 -3.01336,-0.66381 -3.89517,-3 -1.04976,-2.78114 -1.49634,-3 -6.12141,-3 -4.64431,0 -5.06131,0.20729 -6.03485,3 -0.79357,2.27644 -1.66131,3 -3.59782,3 -1.40361,0 -2.55202,-0.28071 -2.55202,-0.62381 z m 15.44376,-11.62619 c -0.38006,-1.237499 -1.25503,-3.599999 -1.94438,-5.249999 l -1.25337,-3 -1.11502,2.794103 c -0.61327,1.536757 -1.3924,3.899257 -1.73142,5.249996 -0.5708,2.27424 -0.3445,2.4559 3.05941,2.4559 3.35001,0 3.61455,-0.19941 2.98478,-2.25 z m 13.55624,-2.249999 0,-14.5 7.57692,0 c 7.10766,0 7.76521,0.188281 10.61699,3.040064 2.54066,2.540664 2.93618,3.559472 2.40769,6.201926 -0.3478,1.739023 -1.55708,4.146167 -2.68728,5.349207 l -2.0549,2.187342 3.08468,6.11073 3.08469,6.11073 -3,0 c -2.66347,0 -3.33976,-0.67306 -6.02879,-6 -2.1716,-4.30192 -3.59074,-6 -5.0144,-6 -1.76018,0 -1.9856,0.68117 -1.9856,6 0,6 0,6 -3,6 l -3,0 0,-14.499999 z m 13.06574,-2.535184 c 1.09756,-0.587396 1.93426,-2.086165 1.93426,-3.464816 0,-2.723617 -2.53994,-4.5 -6.43426,-4.5 -2.37421,0 -2.56574,0.335919 -2.56574,4.5 0,4.164081 0.19153,4.5 2.56574,4.5 1.41116,0 3.43616,-0.465833 4.5,-1.035184 z m 14.93426,2.535184 0,-14.5 9.5,0 c 8.7593,0 9.5,0.152374 9.5,1.95431 0,1.716858 -0.82014,1.990237 -6.75,2.25 l -6.75,0.29569 -0.31037,3.75 -0.31036,3.75 6.06036,0 c 5.34201,0 6.06037,0.231154 6.06037,1.950096 0,1.672592 -0.81824,1.992773 -5.75,2.25 l -5.75,0.299903 -0.31037,3.75 -0.31036,3.75 7.06036,0 c 6.86439,0 7.06037,0.0694 7.06037,2.5 0,2.49123 -0.0333,2.5 -9.5,2.5 l -9.5,0 0,-14.499999 z m 25,0 0,-14.5 9.5,0 c 8.7593,0 9.5,0.152374 9.5,1.95431 0,1.716858 -0.82014,1.990237 -6.75,2.25 l -6.75,0.29569 -0.31037,3.75 -0.31036,3.75 6.06036,0 c 5.34201,0 6.06037,0.231154 6.06037,1.950096 0,1.672592 -0.81824,1.992773 -5.75,2.25 l -5.75,0.299903 -0.31037,3.75 -0.31036,3.75 7.06036,0 c 6.86439,0 7.06037,0.0694 7.06037,2.5 0,2.49123 -0.0333,2.5 -9.5,2.5 l -9.5,0 0,-14.499999 z m 25,0 0,-14.5 7.44424,0 c 6.30544,0 7.84938,0.348496 10.09268,2.278102 3.78441,3.255208 3.88966,9.171665 0.21535,12.104994 l -2.65165,2.116903 3.34092,6.25 3.34092,6.25 -3.25466,0 c -3.01559,0 -3.45441,-0.44507 -5.97368,-6.05875 -2.24541,-5.00344 -3.09654,-6.00497 -4.88656,-5.75 -1.98369,0.28256 -2.13851,0.79651 -1.82516,6.05875 l 0.34241,5.75 -3.09241,0 -3.0924,0 0,-14.499999 z m 13.06574,-2.535184 c 1.09756,-0.587396 1.93426,-2.086165 1.93426,-3.464816 0,-2.70947 -2.53668,-4.5 -6.37524,-4.5 -3.13575,0 -3.45981,0.591557 -2.87595,5.25 0.39956,3.187996 0.83813,3.75 2.92634,3.75 1.35098,0 3.32675,-0.465833 4.39059,-1.035184 z m 15.13445,15.523373 c -2.93197,-1.27373 -3.17424,-1.66817 -2.17331,-3.53842 0.78668,-1.46992 1.63128,-1.87935 2.79981,-1.35723 0.92032,0.41121 3.54736,0.93836 5.83787,1.17146 3.48613,0.35476 4.3527,0.0723 5.3194,-1.73402 1.63447,-3.05404 -0.11457,-4.77706 -5.6993,-5.61454 -5.71665,-0.857267 -8.28466,-3.324918 -8.28466,-7.960894 0,-5.219163 3.60006,-8.454545 9.40749,-8.454545 2.47412,0 5.64768,0.523643 7.05234,1.163652 2.34488,1.068399 2.42593,1.305099 0.99012,2.891647 -1.28978,1.425198 -2.06717,1.537997 -4.43639,0.643717 -3.67007,-1.385297 -8.01356,0.373203 -8.01356,3.244361 0,2.369092 2.79205,4.056623 6.71175,4.056623 3.81996,0 6.99473,2.387114 7.75037,5.827519 1.86066,8.47155 -7.69239,13.81794 -17.26193,9.66067 z m 32.79981,-0.93123 c 0,-1.54967 2.21918,-5.01506 6.06868,-9.47663 4.79145,-5.553298 6.0016,-7.617285 5.75,-9.806964 -0.40746,-3.545985 -4.11644,-4.370694 -6.01124,-1.336628 -1.51858,2.431619 -5.80744,2.814028 -5.80744,0.517808 0,-0.85 1.10455,-2.65 2.45455,-4 3.16982,-3.169822 9.59729,-3.402702 12.54545,-0.454545 3.56175,3.561745 2.65084,8.05772 -3.0763,15.183769 l -5.0763,6.31623 5.0763,0.30226 c 4.63683,0.27609 5.0763,0.51417 5.0763,2.75 0,2.40501 -0.14839,2.44774 -8.5,2.44774 -8.34715,0 -8.5,-0.0439 -8.5,-2.44304 z m 23,-0.55696 c 0,-2.66667 0.33333,-3 3,-3 2.66667,0 3,0.33333 3,3 0,2.66667 -0.33333,3 -3,3 -2.66667,0 -3,-0.33333 -3,-3 z m 14.36174,0.63473 c -2.37073,-2.03922 -2.80785,-3.27702 -3.17094,-8.97929 -0.80951,-12.713059 1.62548,-17.655439 8.69842,-17.655439 6.60699,0 8.49257,2.428819 8.95223,11.531396 0.21521,4.261648 -0.10694,9.411363 -0.71588,11.443813 -1.82772,6.10041 -8.77784,7.9483 -13.76383,3.65952 z m 8.06683,-3.20616 c 1.95365,-1.95365 2.24705,-16.352945 0.37143,-18.228569 -1.80186,-1.801862 -4.59814,-1.445703 -5.76482,0.734258 -1.68808,3.154215 -1.30496,15.653111 0.53625,17.494311 1.97358,1.97358 2.88356,1.97358 4.85714,0 z"
         id="path3020"
         inkscape:connector-curvature="0" />
      <path
         style="fill:#2a2a2a"
         d="m 154.35541,111.35033 c 0.27386,-0.71367 2.63927,-7.23867 5.25646,-14.500002 3.69541,-10.252833 5.15878,-13.202417 6.55004,-13.202417 2.50204,0 3.27669,1.670727 1.04522,2.25427 -1.32013,0.345221 -3.19682,4.201353 -6.62547,13.61369 -2.631,7.222619 -5.22026,13.132039 -5.75391,13.132039 -0.53365,0 -0.7462,-0.58391 -0.47234,-1.29758 z m 29.9354,-13.061719 -0.21935,-14.8593 7.48285,0.377867 c 5.67961,0.286807 7.90871,0.829327 9.25,2.251271 1.69683,1.798858 1.68757,1.839918 -0.23285,1.031862 -1.1,-0.462847 -5.02456,-1.013154 -8.72125,-1.222903 l -6.72126,-0.381361 -0.3094,13.830932 -0.3094,13.830931 -0.21934,-14.859299 z m 26.98619,0.1093 -0.20554,-14.75 9,0 c 11.32825,0 11.94447,1.815455 0.75,2.209558 l -8.25,0.290442 -0.54446,13.5 -0.54447,13.499999 -0.20553,-14.749999 z m 25,0 -0.20554,-14.75 9.5,0 c 11.99741,0 12.61452,1.81929 0.75,2.211067 l -8.75,0.288933 -0.54446,13.5 -0.54447,13.499999 -0.20553,-14.749999 z m 25,-0.105885 -0.20554,-14.855885 7.97035,0.361953 c 6.19601,0.281375 8.36654,0.78179 9.75,2.247856 1.71318,1.815459 1.70494,1.853699 -0.22035,1.023738 -1.1,-0.47419 -5.15,-0.875577 -9,-0.891971 l -7,-0.02981 -0.54446,13.5 -0.54447,13.500003 -0.20553,-14.855888 z m 60.88229,12.355884 c -0.0454,-1.61937 1.68809,-4.55398 4.92109,-8.33101 2.74514,-3.207055 5.65579,-6.779905 6.46812,-7.939667 0.81233,-1.159761 1.74877,-1.836848 2.08098,-1.504636 0.95713,0.957127 -1.44938,4.793577 -7.07272,11.275313 -2.86297,3.3 -5.45785,6.675 -5.7664,7.5 -0.34338,0.9181 -0.58818,0.53017 -0.63107,-1 z m 22.97556,-0.75 c -0.0549,-2.8169 0.26976,-3.25 2.43661,-3.25 1.375,0 2.5,0.45 2.5,1 0,0.55 -0.6895,1 -1.53222,1 -0.84273,0 -1.9392,1.0125 -2.43662,2.25 -0.82088,2.04225 -0.91024,1.94992 -0.96777,-1 z m -206.62226,-0.81813 c -1.85692,-1.5001 -1.82091,-1.54242 0.82997,-0.97565 2.12232,0.45377 3.36212,0.002 5.29546,-1.93187 2.50792,-2.50792 6.43344,-3.43804 6.43344,-1.52435 0,0.55 -0.49754,1 -1.10565,1 -0.6081,0 -2.44263,1.125 -4.07672,2.5 -3.46274,2.91371 -4.72576,3.07326 -7.3765,0.93187 z m 148.15891,0.73 c -1.33107,-2.15371 2.15025,-3.3062 6.47187,-2.14251 3.76759,1.01451 4.53305,0.90949 7.07633,-0.97084 2.27457,-1.68166 2.85176,-1.8034 2.85176,-0.60151 0,0.82879 -1.1454,2.25738 -2.54532,3.17465 -2.17439,1.42471 -3.13228,1.4919 -6.57287,0.46108 -2.96096,-0.88713 -4.3819,-0.91259 -5.36565,-0.0961 -0.79877,0.66292 -1.57108,0.73356 -1.91612,0.17528 z m 43.39996,-0.16187 c 0,-0.55 2.025,-1 4.5,-1 2.475,0 4.5,0.45 4.5,1 0,0.55 -2.025,1 -4.5,1 -2.475,0 -4.5,-0.45 -4.5,-1 z m 33.1137,-0.363 c -0.91063,-1.09724 -0.67892,-1.27654 1.18837,-0.91959 3.46228,0.66186 4.56478,-1.51187 4.95128,-9.762091 l 0.34926,-7.455318 0.19869,8.55 c 0.20439,8.795049 -0.55896,10.949999 -3.87886,10.949999 -0.92265,0 -2.18659,-0.61335 -2.80874,-1.363 z m -146.1137,-0.637 c 0,-0.55556 2.66667,-1 6,-1 3.33333,0 6,0.44444 6,1 0,0.55556 -2.66667,1 -6,1 -3.33333,0 -6,-0.44444 -6,-1 z m 25,0 c 0,-0.5641 2.83333,-1 6.5,-1 3.66667,0 6.5,0.4359 6.5,1 0,0.5641 -2.83333,1 -6.5,1 -3.66667,0 -6.5,-0.4359 -6.5,-1 z M 357.24691,97.970491 c -0.17063,-9.897942 -0.1031,-10.234334 2.45941,-12.25 3.37179,-2.652255 8.34973,-2.667231 11.17658,-0.03363 2.83357,2.639873 2.81405,3.512564 -0.034,1.517749 -3.00381,-2.103956 -7.05657,-1.960319 -9.91671,0.351466 -2.08244,1.68319 -2.42852,3.009603 -2.93533,11.25 l -0.5745,9.341824 -0.17545,-10.177414 z M 131.1504,105.23124 c -0.0434,-1.05416 0.19293,-1.64479 0.52522,-1.3125 0.33229,0.3323 0.36782,1.1948 0.0789,1.91667 -0.31922,0.79773 -0.55618,0.56078 -0.60416,-0.60417 z m 32.92106,-1.47392 c 0,-0.48983 1.575,-1.07447 3.5,-1.2992 2.41369,-0.28179 3.5,-0.005 3.5,0.89059 0,0.81813 -1.29598,1.2992 -3.5,1.2992 -1.925,0 -3.5,-0.40077 -3.5,-0.89059 z m -33.49421,-8.109409 c 0.41,-5.661839 0.86109,-6.854607 3.49823,-9.25 4.06262,-3.690205 9.73573,-3.783608 13.69021,-0.225398 l 2.80577,2.524602 -3.63875,-1.656763 c -4.356,-1.983334 -9.74471,-1.283691 -12.35855,1.604572 -0.97453,1.076844 -2.37842,4.555543 -3.11974,7.730442 l -1.34787,5.772544 0.4707,-6.499999 z m 172.49421,3.416694 c -1.375,-0.762966 -3.6824,-1.393844 -5.12756,-1.401952 -1.44515,-0.0081 -3.21124,-0.718039 -3.92463,-1.577624 -1.14021,-1.373868 -0.94337,-1.483946 1.62756,-0.910188 6.27444,1.400275 9.27053,2.629121 9.80482,4.021438 0.30637,0.798398 0.45866,1.407511 0.33843,1.353581 -0.12024,-0.0539 -1.34362,-0.72229 -2.71862,-1.485255 z m -113,-1.416694 c 0,-0.55 1.33247,-1 2.96104,-1 1.75833,0 3.78924,-0.888954 5,-2.188561 1.64248,-1.762985 2.03896,-1.874102 2.03896,-0.571429 0,2.649705 -2.91336,4.75999 -6.57143,4.75999 -1.88571,0 -3.42857,-0.45 -3.42857,-1 z m 77.53808,0.06161 c -0.31898,-0.516112 1.10662,-1.078612 3.16799,-1.25 2.82146,-0.234583 4.05898,-0.929606 5.0062,-2.811613 l 1.25825,-2.5 0.0147,2.55 c 0.008,1.4025 -0.52526,3.09 -1.18526,3.75 -1.41936,1.419364 -7.42879,1.609652 -8.26192,0.261613 z m -50.53808,-1.06161 c 0,-0.55 2.25,-1 5,-1 2.75,0 5,0.45 5,1 0,0.55 -2.25,1 -5,1 -2.75,0 -5,-0.45 -5,-1 z m 25,0 c 0,-0.55 2.475,-1 5.5,-1 3.025,0 5.5,0.45 5.5,1 0,0.55 -2.475,1 -5.5,1 -3.025,0 -5.5,-0.45 -5.5,-1 z m 45.0528,-3.5 c -0.0509,-3.993049 1.25904,-6.609899 4.02464,-8.040048 3.62293,-1.87349 9.98776,-1.874798 12.48143,-0.0026 1.75775,1.319706 1.44812,1.401369 -3.27749,0.864426 -6.18728,-0.703025 -9.67551,1.068398 -11.82225,6.003664 -1.00533,2.311223 -1.38778,2.63063 -1.40633,1.174523 z m 35.46671,-3.75 c 1.62184,-5.577329 9.12214,-7.611338 13.61971,-3.693537 2.22083,1.934554 2.2313,1.993835 0.17652,1 -4.30262,-2.081052 -10.75532,-0.39754 -11.86391,3.095294 -0.85094,2.681091 -2.71603,2.293314 -1.93232,-0.401757 z"
         id="path3018"
         inkscape:connector-curvature="0" />
    </g>
  </g>
</svg>
