<?xml version="1.0" encoding="UTF-8" standalone="no"?>

<svg xmlns="http://www.w3.org/2000/svg" viewBox="0 0 100 100">
  <g
     transform="translate(-417.35918,-359.50504)"
     id="layer1">
    <g
       transform="translate(284.48546,162.82109)"
       id="layer1-9">
      <path
         d="m 141.11322,278.2308 c -5.46553,-40.50957 -3.3293,-24.37383 -8.02587,-60.76501 -1.38496,-7.27174 4.13406,-15.20154 11.63211,-16.28442 66.55179,-8.94265 -28.20194,3.75759 29.32943,-4.08094 8.2997,-1.88871 15.74731,2.85541 17.82868,10.00441 4.77324,31.78682 4.62761,31.90785 8.46625,61.40139 3.0137,16.69449 -4.48291,22.60771 -15.98169,23.91872 -77.7467,10.62007 15.42118,-2.62951 -19.45318,2.65332 -16.92433,2.71127 -22.76367,-3.73084 -23.79573,-16.84747 z m 57.46382,-7.57571 c -3.41147,-28.84854 -3.35504,-25.28686 -6.7956,-51.87654 -71.40905,10.18612 9.26743,-1.32337 -55.01668,8.27351 3.60884,31.303 2.92051,24.55965 6.40366,51.07082 74.72456,-9.55463 -12.79513,1.86211 55.40862,-7.46779 z m -49.69095,-1.69572 c -0.20927,-0.2292 -0.38049,-0.51457 -0.38049,-0.63415 0,-0.11958 -0.0978,-0.21742 -0.21743,-0.21742 -0.11958,0 -0.21742,-0.27396 -0.21742,-0.60879 0,-0.33483 -0.0934,-0.70219 -0.20756,-0.81635 -0.11416,-0.11416 -0.37115,-1.03875 -0.57108,-2.05464 -0.19994,-1.0159 -0.44897,-1.94003 -0.55342,-2.05364 -0.10444,-0.1136 -0.1899,-0.58412 -0.1899,-1.04559 0,-0.50399 -0.0868,-0.78538 -0.21742,-0.70466 -0.12913,0.0798 -0.21743,-0.17465 -0.21743,-0.62661 0,-0.41854 -0.0875,-0.81506 -0.19445,-0.88116 -0.10695,-0.0661 -0.25087,-0.48769 -0.31981,-0.93687 -0.069,-0.44919 -0.22328,-1.40375 -0.34295,-2.12124 -0.11968,-0.7175 -0.32708,-2.03834 -0.4609,-2.93521 -0.13382,-0.89687 -0.33227,-1.80056 -0.441,-2.00821 -0.10873,-0.20765 -0.19769,-1.01483 -0.19769,-1.79374 0,-0.77891 -0.0897,-1.4162 -0.19922,-1.4162 -0.10956,0 -0.25752,-1.14962 -0.32878,-2.55472 -0.29991,-5.9131 -0.38061,-6.91343 -0.57354,-7.10973 -0.11165,-0.1136 -0.203,-0.6154 -0.203,-1.11509 0,-0.79254 0.0763,-0.93679 0.59791,-1.12983 1.75656,-0.6501 2.01117,-0.76972 2.01117,-0.94496 0,-0.10507 0.2446,-0.19105 0.54355,-0.19105 0.29896,0 0.54356,-0.0978 0.54356,-0.21742 0,-0.11958 0.44028,-0.21742 0.9784,-0.21742 0.53813,0 0.97841,-0.0978 0.97841,-0.21742 0,-0.1279 0.76098,-0.21743 1.84809,-0.21743 1.08712,0 1.8481,0.0895 1.8481,0.21743 0,0.11958 0.13022,0.21742 0.28939,0.21742 0.15917,0 0.4203,0.2446 0.5803,0.54356 0.16,0.29895 0.37221,0.54355 0.47158,0.54355 0.0994,0 0.18069,0.11108 0.18069,0.24685 0,0.13577 0.22014,0.45453 0.4892,0.70837 0.26906,0.25384 0.62715,0.72815 0.79576,1.05402 0.1686,0.32588 0.48658,0.78574 0.70662,1.02192 0.22004,0.23619 0.40007,0.52321 0.40007,0.63782 0,0.11462 0.0892,0.24101 0.19832,0.28087 0.2439,0.0891 1.75849,2.32394 1.75849,2.59469 0,0.10757 0.0978,0.19557 0.21742,0.19557 0.11958,0 0.21742,0.14676 0.21742,0.32614 0,0.17937 0.0978,0.32613 0.21742,0.32613 0.11959,0 0.21743,0.14676 0.21743,0.32614 0,0.17937 0.086,0.32613 0.19104,0.32613 0.10508,0 0.31263,0.29352 0.46123,0.65227 0.14859,0.35875 0.40507,0.65227 0.56993,0.65227 0.16487,0 0.29976,0.17723 0.29976,0.39385 0,0.21661 0.19568,0.60388 0.43484,0.8606 0.23917,0.25671 0.43485,0.56868 0.43485,0.69326 0,0.12459 0.0861,0.22652 0.19127,0.22652 0.1052,0 0.56526,0.58704 1.02235,1.30454 0.4571,0.71749 0.96384,1.30453 1.1261,1.30453 0.16226,0 0.23455,0.0978 0.16064,0.21743 -0.0739,0.11958 -0.0308,0.21742 0.0959,0.21742 0.30061,0 0.2993,-1.01878 -0.002,-1.20471 -0.29631,-0.18313 -0.13964,-4.33607 0.31955,-8.47061 0.18593,-1.67416 0.3432,-3.53312 0.34949,-4.13104 0.006,-0.6023 0.15379,-1.27533 0.33065,-1.50916 0.17557,-0.23212 0.31922,-0.7947 0.31922,-1.25018 0,-0.45547 0.0978,-0.82813 0.21743,-0.82813 0.11958,0 0.21742,-0.32288 0.21742,-0.7175 0,-0.39462 0.0888,-0.81044 0.19738,-0.92405 0.10856,-0.1136 0.24832,-0.69575 0.31057,-1.29366 0.1611,-1.54715 0.38352,-2.50037 0.58344,-2.50037 0.0948,0 0.23708,-0.46474 0.31622,-1.03276 0.0791,-0.56801 0.25958,-1.18929 0.40099,-1.38061 0.44721,-0.60502 3.61238,-1.03446 6.94106,-0.94175 2.14797,0.0598 2.22233,0.0789 2.76235,0.70983 1.181,1.37975 1.31594,1.57323 1.31594,1.8868 0,0.178 0.0978,0.32365 0.21742,0.32365 0.11959,0 0.21743,0.23882 0.21743,0.53072 0,0.2919 0.0853,0.58346 0.18959,0.6479 0.10427,0.0644 0.36773,0.80402 0.58546,1.6435 0.21774,0.83949 0.47487,1.52634 0.5714,1.52634 0.0965,0 0.17551,0.29352 0.17551,0.65226 0,0.35875 0.0978,0.65227 0.21742,0.65227 0.11958,0 0.21742,0.19568 0.21742,0.43485 0,0.23916 0.0822,0.43484 0.18262,0.43484 0.10045,0 0.31742,0.41583 0.48216,0.92405 0.16474,0.50823 0.4244,1.16865 0.57702,1.46761 0.15262,0.29895 0.27809,0.66585 0.27882,0.81533 6.6e-4,0.14948 0.0992,0.27178 0.21877,0.27178 0.11958,0 0.21742,0.29352 0.21742,0.65227 0,0.35875 0.0978,0.65227 0.21742,0.65227 0.11958,0 0.21742,0.23882 0.21742,0.53072 0,0.2919 0.0978,0.5912 0.21743,0.6651 0.11958,0.0739 0.21742,0.36743 0.21742,0.65227 0,0.28484 0.0978,0.57837 0.21742,0.65227 0.11959,0.0739 0.21743,0.40342 0.21743,0.73226 0,0.32883 0.14365,0.7878 0.31922,1.01992 0.17557,0.23213 0.32233,0.59327 0.32613,0.80254 0.004,0.20927 0.10476,0.38049 0.22434,0.38049 0.11958,0 0.21742,0.28775 0.21742,0.63944 0,0.35169 0.0978,0.6999 0.21742,0.77381 0.11959,0.0739 0.21743,0.3732 0.21743,0.6651 0,0.2919 0.0978,0.53073 0.21742,0.53073 0.11958,0 0.21742,0.28774 0.21742,0.63943 0,0.35169 0.0978,0.69991 0.21743,0.77382 0.11958,0.0739 0.21742,0.41634 0.21742,0.76098 0,0.34463 0.0888,0.68148 0.19731,0.74855 0.10852,0.0671 0.37163,0.68434 0.58468,1.37172 0.21305,0.68738 0.56454,1.57074 0.78109,1.96302 0.21655,0.39228 0.39372,0.86401 0.39372,1.04829 0,0.18428 0.14662,0.48166 0.32581,0.66086 0.1792,0.17919 0.38085,0.58802 0.44813,0.90851 0.0673,0.32049 0.2631,0.90401 0.43517,1.29671 0.17207,0.39271 0.31286,0.93684 0.31286,1.20919 0,0.27235 0.19568,0.70522 0.43484,0.96193 0.23917,0.25672 0.43485,0.61183 0.43485,0.78915 0,0.17732 0.0978,0.38286 0.21742,0.45677 0.11958,0.0739 0.21742,0.32428 0.21742,0.55639 0,0.23211 0.0978,0.42201 0.21743,0.42201 0.11958,0 0.21742,0.17698 0.21742,0.39329 0,0.21631 0.14365,0.58321 0.31922,0.81534 0.17557,0.23212 0.32233,0.59326 0.32613,0.80253 0.004,0.20927 0.10476,0.38049 0.22434,0.38049 0.11958,0 0.21742,0.18753 0.21742,0.41673 0,0.2292 0.11545,0.45521 0.25654,0.50224 0.16349,0.0545 0.19374,0.23851 0.0834,0.50732 -0.11227,0.27351 -0.20883,0.32626 -0.27466,0.15003 -0.10699,-0.28644 -1.17092,-0.3891 -1.12664,-0.10871 0.0759,0.48074 -0.0713,0.70662 -0.4606,0.70662 -0.23916,0 -0.43484,0.13313 -0.43484,0.29585 0,0.1944 -0.38747,0.34174 -1.12993,0.42968 -0.67232,0.0796 -1.20503,0.268 -1.31535,0.46513 -0.11731,0.20959 -0.50096,0.3313 -1.04432,0.3313 -0.47238,0 -0.85888,0.0978 -0.85888,0.21743 0,0.11958 -0.25159,0.21742 -0.55909,0.21742 -0.59984,0 -1.17596,-0.44087 -1.18721,-0.90852 -0.004,-0.15802 -0.15057,-0.47723 -0.32613,-0.70935 -0.17558,-0.23213 -0.31923,-0.64795 -0.31923,-0.92405 0,-0.2761 -0.0978,-0.502 -0.21742,-0.502 -0.11958,0 -0.21742,-0.18991 -0.21742,-0.42202 0,-0.2321 -0.0978,-0.48248 -0.21742,-0.55639 -0.11959,-0.0739 -0.21743,-0.32428 -0.21743,-0.55638 0,-0.23211 -0.0978,-0.42202 -0.21742,-0.42202 -0.11958,0 -0.21742,-0.14676 -0.21742,-0.32613 0,-0.17938 -0.0768,-0.32614 -0.17069,-0.32614 -0.0939,0 -0.46079,-0.53778 -0.81534,-1.19506 -0.35455,-0.65729 -0.71802,-1.19541 -0.80771,-1.19583 -0.0897,-4.3e-4 -0.16307,-0.19644 -0.16307,-0.4356 0,-0.23917 -0.0978,-0.43485 -0.21742,-0.43485 -0.11958,0 -0.21742,-0.2446 -0.21742,-0.54356 0,-0.29895 -0.11415,-0.54356 -0.25367,-0.54356 -0.13951,0 -0.1963,-0.0573 -0.12621,-0.12744 0.0701,-0.0701 -0.15819,-0.7641 -0.50732,-1.54223 -0.34912,-0.77813 -0.63477,-1.55242 -0.63477,-1.72065 0,-0.16823 -0.0978,-0.30586 -0.21742,-0.30586 -0.11958,0 -0.21742,-0.19569 -0.21742,-0.43485 0,-0.23917 -0.0822,-0.43485 -0.18262,-0.43485 -0.10045,0 -0.31648,-0.41582 -0.48009,-0.92404 -0.1636,-0.50823 -0.35988,-0.97297 -0.43617,-1.03276 -0.0763,-0.0598 -0.31393,-0.6713 -0.52808,-1.3589 -0.21416,-0.6876 -0.47382,-1.25018 -0.57703,-1.25018 -0.10322,0 -0.18766,-0.29352 -0.18766,-0.65227 0,-0.35874 -0.0978,-0.65227 -0.21743,-0.65227 -0.11958,0 -0.21742,-0.29352 -0.21742,-0.65226 0,-0.35875 -0.0978,-0.65227 -0.21742,-0.65227 -0.11958,0 -0.22054,-0.17122 -0.22434,-0.38049 -0.004,-0.20927 -0.15056,-0.57041 -0.32613,-0.80254 -0.17557,-0.23212 -0.31922,-0.59903 -0.31922,-0.81533 0,-0.21631 -0.0978,-0.39329 -0.21743,-0.39329 -0.11958,0 -0.21742,-0.20267 -0.21742,-0.45038 0,-0.41603 -0.45604,-1.07159 -0.74545,-1.07159 -0.0683,0 -0.12424,0.83165 -0.12424,1.8481 0,1.01645 0.0887,1.84809 0.19704,1.84809 0.10837,0 0.25255,1.39423 0.32042,3.09828 0.15276,3.83605 0.42368,6.92823 0.63715,7.27232 0.26354,0.42482 0.21734,7.91249 -0.0505,8.18031 -0.12893,0.12894 -0.23443,0.38701 -0.23443,0.57349 0,0.52746 -0.66802,0.8223 -2.24593,0.99129 -0.79764,0.0854 -1.45026,0.23104 -1.45026,0.32361 0,0.0926 -0.31798,0.21966 -0.70662,0.28243 -2.17426,0.35117 -2.55472,0.44266 -2.55472,0.61435 0,0.10383 -0.45107,0.18879 -1.00237,0.18879 -0.89857,0 -1.1012,-0.10025 -1.95681,-0.96813 -0.52494,-0.53248 -0.95443,-1.0706 -0.95443,-1.19583 0,-0.12523 -0.14677,-0.22769 -0.32614,-0.22769 -0.17937,0 -0.32613,-0.0896 -0.32613,-0.19913 0,-0.10952 -0.44029,-0.67189 -0.97841,-1.24971 -0.53812,-0.57783 -0.9784,-1.12042 -0.9784,-1.20578 0,-0.0854 -0.44028,-0.6082 -0.9784,-1.16189 -0.53812,-0.55369 -0.97841,-1.0832 -0.97841,-1.17669 0,-0.0935 -0.39136,-0.59814 -0.86969,-1.12142 -0.47833,-0.52329 -0.86969,-1.05218 -0.86969,-1.17531 0,-0.12313 -0.19568,-0.36491 -0.43485,-0.53729 -0.23916,-0.17239 -0.43484,-0.43859 -0.43484,-0.59156 0,-0.15297 -0.0978,-0.27814 -0.21742,-0.27814 -0.11959,0 -0.21743,0.34245 -0.21743,0.76098 0,0.41854 0.0978,0.76098 0.21743,0.76098 0.11958,0 0.21742,0.34245 0.21742,0.76098 0,0.41854 0.0871,0.76099 0.19363,0.76099 0.18519,0 0.27146,0.33566 0.58677,2.28294 0.0774,0.47833 0.22694,0.9774 0.3322,1.10905 0.10525,0.13164 0.25371,0.69423 0.32992,1.25018 0.0762,0.55595 0.20175,1.01082 0.27899,1.01082 0.0773,0 0.16136,0.2527 0.18693,0.56155 0.0334,0.40327 -0.20021,0.80577 -0.82878,1.42809 -0.82681,0.81859 -2.88721,1.92397 -3.58622,1.92397 -0.17597,0 -0.31994,0.0978 -0.31994,0.21743 0,0.11958 -0.29352,0.21742 -0.65227,0.21742 -0.35875,0 -0.65227,0.0978 -0.65227,0.21742 0,0.12369 -0.58583,0.20961 -1.35889,0.19931 -1.04628,-0.014 -1.44642,-0.11399 -1.73938,-0.43485 z" style="fill:#000000" />
    </g>
  </g>
</svg>
