<?xml version="1.0" encoding="UTF-8" standalone="no"?>
<!-- Created with Inkscape (http://www.inkscape.org/) -->

<svg
   xmlns:dc="http://purl.org/dc/elements/1.1/"
   xmlns:cc="http://creativecommons.org/ns#"
   xmlns:rdf="http://www.w3.org/1999/02/22-rdf-syntax-ns#"
   xmlns:svg="http://www.w3.org/2000/svg"
   xmlns="http://www.w3.org/2000/svg"
   xmlns:sodipodi="http://sodipodi.sourceforge.net/DTD/sodipodi-0.dtd"
   xmlns:inkscape="http://www.inkscape.org/namespaces/inkscape"
   id="svg3043"
   version="1.1"
   inkscape:version="0.48.3.1 r9886"
   width="100"
   height="100"
   sodipodi:docname="tumblr.svg">
  <metadata
     id="metadata3051">
    <rdf:RDF>
      <cc:Work
         rdf:about="">
        <dc:format>image/svg+xml</dc:format>
        <dc:type
           rdf:resource="http://purl.org/dc/dcmitype/StillImage" />
        <dc:title></dc:title>
      </cc:Work>
    </rdf:RDF>
  </metadata>
  <defs
     id="defs3049" />
  <sodipodi:namedview
     pagecolor="#ffffff"
     bordercolor="#666666"
     borderopacity="1"
     objecttolerance="10"
     gridtolerance="10"
     guidetolerance="10"
     inkscape:pageopacity="0"
     inkscape:pageshadow="2"
     inkscape:window-width="959"
     inkscape:window-height="576"
     id="namedview3047"
     showgrid="false"
     inkscape:zoom="3.2612346"
     inkscape:cx="15.605009"
     inkscape:cy="44.383238"
     inkscape:window-x="65"
     inkscape:window-y="24"
     inkscape:window-maximized="1"
     inkscape:current-layer="svg3043" />
  <path
     style="fill:#000000;fill-opacity:1;fill-rule:evenodd;stroke:none"
     d="M 17.221041,0 82.778959,0 C 92.319416,0 100,7.6805842 100,17.221041 l 0,65.557918 C 100,92.319416 92.319416,100 82.778959,100 l -65.557918,0 C 7.6805842,100 0,92.319416 0,82.778959 L 0,17.221041 C 0,7.6805842 7.6805842,0 17.221041,0 z"
     id="rect3053" />
  <path
     style="fill:#ffffff"
     d="m 18.6965,31.964467 c 8.395921,-0.548554 15.981225,-2.459116 15.427817,-16.731578 l 8.039847,-0.217298 -0.434585,16.731578 17.289274,0 0,13.254883 -17.289274,-0.217287 0.217295,19.773676 c 2.285119,13.047684 14.719314,13.002809 19.467047,8.390602 l 0.306632,7.215888 C 58.031089,83.09382 50.730779,84.687657 44.771684,84.984 34.521354,83.88253 25.730328,80.549189 25.215296,64.558441 l 0,-19.556389 -6.518796,0 z"
     id="path3045"
     inkscape:connector-curvature="0"
     sodipodi:nodetypes="ccccccccccccccc" />
  <path
     sodipodi:type="arc"
     style="fill:#ffffff;fill-opacity:1;stroke:none"
     id="path3901"
     sodipodi:cx="63.779526"
     sodipodi:cy="65.043915"
     sodipodi:rx="11.038764"
     sodipodi:ry="11.958661"
     d="m 74.81829,65.043915 a 11.038764,11.958661 0 1 1 -22.077528,0 11.038764,11.958661 0 1 1 22.077528,0 z"
     transform="matrix(0.67942389,0,0,0.62716052,30.470042,34.20072)" />
</svg>
