<?xml version="1.0" encoding="UTF-8" standalone="no"?>
<!-- Created with Inkscape (http://www.inkscape.org/) -->

<svg xmlns="http://www.w3.org/2000/svg">
    <path d="M 17.21875,0 C 7.6782932,0 0,7.6782932 0,17.21875 l 0,65.5625 C 0,92.321707 7.6782932,100 17.21875,100 l 65.5625,0 C 92.321707,100 100,92.321707 100,82.78125 l 0,-65.5625 C 100,7.6782932 92.321707,0 82.78125,0 l -65.5625,0 z m 24.9375,15 -0.4375,16.75 17.3125,0 0,13.25 -17.3125,-0.21875 0.21875,19.78125 c 2.285119,13.047684 14.721017,12.987207 19.46875,8.375 l 0.3125,7.21875 c -3.689464,2.928889 -10.978405,4.516157 -16.9375,4.8125 C 34.53092,83.86728 25.733782,80.553248 25.21875,64.5625 l 0,-19.5625 -6.53125,0 0,-13.03125 c 8.395921,-0.548554 15.990908,-2.477538 15.4375,-16.75 L 42.15625,15 z M 73.8125,67.5 c 4.142136,0 7.5,3.357864 7.5,7.5 0,4.142136 -3.357864,7.5 -7.5,7.5 -4.142136,0 -7.5,-3.357864 -7.5,-7.5 0,-4.142136 3.357864,-7.5 7.5,-7.5 z" style="fill:#000000" />
</svg>
